<svg width="285" height="173" viewBox="0 0 285 173" fill="none" xmlns="http://www.w3.org/2000/svg">
<rect width="285" height="172.701" rx="20" fill="#FFA000"/>
<mask id="mask0_457_26" style="mask-type:alpha" maskUnits="userSpaceOnUse" x="0" y="0" width="285" height="173">
<rect width="285" height="172.701" rx="20" fill="#FFA000"/>
</mask>
<g mask="url(#mask0_457_26)">
<ellipse opacity="0.3" cx="254.308" cy="26.6401" rx="109.615" ry="114.828" fill="white"/>
<ellipse opacity="0.25" cx="258.693" cy="159.841" rx="43.8462" ry="45.9313" fill="white"/>
</g>
<path d="M36.272 86.343L36.992 87.623L34.8 88.439L36.992 89.255L36.256 90.567L34.432 89.127L34.768 91.447H33.296L33.6 89.127L31.776 90.599L31.008 89.239L33.184 88.423L31.008 87.639L31.744 86.327L33.616 87.767L33.296 85.431H34.784L34.432 87.767L36.272 86.343ZM46.3345 86.343L47.0545 87.623L44.8625 88.439L47.0545 89.255L46.3185 90.567L44.4945 89.127L44.8305 91.447H43.3585L43.6625 89.127L41.8385 90.599L41.0705 89.239L43.2465 88.423L41.0705 87.639L41.8065 86.327L43.6785 87.767L43.3585 85.431H44.8465L44.4945 87.767L46.3345 86.343ZM56.397 86.343L57.117 87.623L54.925 88.439L57.117 89.255L56.381 90.567L54.557 89.127L54.893 91.447H53.421L53.725 89.127L51.901 90.599L51.133 89.239L53.309 88.423L51.133 87.639L51.869 86.327L53.741 87.767L53.421 85.431H54.909L54.557 87.767L56.397 86.343ZM66.4595 86.343L67.1795 87.623L64.9875 88.439L67.1795 89.255L66.4435 90.567L64.6195 89.127L64.9555 91.447H63.4835L63.7875 89.127L61.9635 90.599L61.1955 89.239L63.3715 88.423L61.1955 87.639L61.9315 86.327L63.8035 87.767L63.4835 85.431H64.9715L64.6195 87.767L66.4595 86.343Z" fill="white"/>
<path d="M97.272 86.343L97.992 87.623L95.8 88.439L97.992 89.255L97.256 90.567L95.432 89.127L95.768 91.447H94.296L94.6 89.127L92.776 90.599L92.008 89.239L94.184 88.423L92.008 87.639L92.744 86.327L94.616 87.767L94.296 85.431H95.784L95.432 87.767L97.272 86.343ZM107.335 86.343L108.055 87.623L105.863 88.439L108.055 89.255L107.319 90.567L105.495 89.127L105.831 91.447H104.359L104.663 89.127L102.839 90.599L102.071 89.239L104.247 88.423L102.071 87.639L102.807 86.327L104.679 87.767L104.359 85.431H105.847L105.495 87.767L107.335 86.343ZM117.397 86.343L118.117 87.623L115.925 88.439L118.117 89.255L117.381 90.567L115.557 89.127L115.893 91.447H114.421L114.725 89.127L112.901 90.599L112.133 89.239L114.309 88.423L112.133 87.639L112.869 86.327L114.741 87.767L114.421 85.431H115.909L115.557 87.767L117.397 86.343ZM127.46 86.343L128.18 87.623L125.988 88.439L128.18 89.255L127.444 90.567L125.62 89.127L125.956 91.447H124.484L124.788 89.127L122.964 90.599L122.196 89.239L124.372 88.423L122.196 87.639L122.932 86.327L124.804 87.767L124.484 85.431H125.972L125.62 87.767L127.46 86.343Z" fill="white"/>
<path d="M158.272 86.343L158.992 87.623L156.8 88.439L158.992 89.255L158.256 90.567L156.432 89.127L156.768 91.447H155.296L155.6 89.127L153.776 90.599L153.008 89.239L155.184 88.423L153.008 87.639L153.744 86.327L155.616 87.767L155.296 85.431H156.784L156.432 87.767L158.272 86.343ZM168.335 86.343L169.055 87.623L166.863 88.439L169.055 89.255L168.319 90.567L166.495 89.127L166.831 91.447H165.359L165.663 89.127L163.839 90.599L163.071 89.239L165.247 88.423L163.071 87.639L163.807 86.327L165.679 87.767L165.359 85.431H166.847L166.495 87.767L168.335 86.343ZM178.397 86.343L179.117 87.623L176.925 88.439L179.117 89.255L178.381 90.567L176.557 89.127L176.893 91.447H175.421L175.725 89.127L173.901 90.599L173.133 89.239L175.309 88.423L173.133 87.639L173.869 86.327L175.741 87.767L175.421 85.431H176.909L176.557 87.767L178.397 86.343ZM188.46 86.343L189.18 87.623L186.988 88.439L189.18 89.255L188.444 90.567L186.62 89.127L186.956 91.447H185.484L185.788 89.127L183.964 90.599L183.196 89.239L185.372 88.423L183.196 87.639L183.932 86.327L185.804 87.767L185.484 85.431H186.972L186.62 87.767L188.46 86.343Z" fill="white"/>
<path d="M213.72 87.207V85.543H217.048V97.207H215.208V87.207H213.72ZM221.33 94.775V93.399L226.706 85.687H228.914V93.191H230.402V94.775H228.914V97.207H227.122V94.775H221.33ZM227.202 87.543L223.426 93.191H227.202V87.543ZM234.921 94.727C235.945 93.8417 236.75 93.1164 237.337 92.551C237.934 91.975 238.43 91.3777 238.825 90.759C239.22 90.1404 239.417 89.5217 239.417 88.903C239.417 88.263 239.262 87.7617 238.953 87.399C238.654 87.0364 238.18 86.855 237.529 86.855C236.9 86.855 236.409 87.0577 236.057 87.463C235.716 87.8577 235.534 88.391 235.513 89.063H233.753C233.785 87.847 234.148 86.919 234.841 86.279C235.545 85.6284 236.436 85.303 237.513 85.303C238.676 85.303 239.582 85.623 240.233 86.263C240.894 86.903 241.225 87.7564 241.225 88.823C241.225 89.591 241.028 90.3324 240.633 91.047C240.249 91.751 239.785 92.3857 239.241 92.951C238.708 93.5057 238.025 94.151 237.193 94.887L236.473 95.527H241.545V97.047H233.769V95.719L234.921 94.727ZM244.924 94.775V93.399L250.3 85.687H252.508V93.191H253.996V94.775H252.508V97.207H250.716V94.775H244.924ZM250.796 87.543L247.02 93.191H250.796V87.543Z" fill="white"/>
<g clip-path="url(#clip0_457_26)">
<path d="M225.363 44.0718V42.271C225.363 41.5806 224.942 41.1305 224.222 41.1305C223.862 41.1305 223.472 41.2506 223.202 41.6408C222.992 41.3106 222.691 41.1305 222.241 41.1305C221.941 41.1305 221.641 41.2205 221.401 41.5507V41.1906H220.771V44.0718H221.401V42.481C221.401 41.9709 221.671 41.7307 222.091 41.7307C222.511 41.7307 222.721 42.0009 222.721 42.481V44.0718H223.352V42.481C223.352 41.9709 223.652 41.7307 224.042 41.7307C224.462 41.7307 224.672 42.0009 224.672 42.481V44.0718H225.363ZM234.697 41.1906H233.676V40.3202H233.046V41.1906H232.476V41.7607H233.046V43.0814C233.046 43.7417 233.316 44.1318 234.036 44.1318C234.306 44.1318 234.606 44.0418 234.817 43.9218L234.637 43.3815C234.456 43.5015 234.246 43.5316 234.096 43.5316C233.796 43.5316 233.676 43.3515 233.676 43.0513V41.7607H234.697V41.1906ZM240.039 41.1304C239.679 41.1304 239.439 41.3106 239.289 41.5507V41.1906H238.658V44.0718H239.289V42.4511C239.289 41.9709 239.499 41.7008 239.889 41.7008C240.009 41.7008 240.159 41.7309 240.279 41.7608L240.459 41.1606C240.339 41.1305 240.159 41.1305 240.039 41.1305V41.1304ZM231.965 41.4306C231.665 41.2205 231.245 41.1305 230.795 41.1305C230.075 41.1305 229.594 41.4907 229.594 42.0609C229.594 42.5412 229.955 42.8112 230.585 42.9013L230.885 42.9314C231.215 42.9913 231.395 43.0814 231.395 43.2315C231.395 43.4415 231.155 43.5916 230.735 43.5916C230.315 43.5916 229.985 43.4415 229.774 43.2915L229.474 43.7717C229.804 44.0117 230.255 44.1318 230.705 44.1318C231.545 44.1318 232.025 43.7417 232.025 43.2014C232.025 42.6912 231.635 42.421 231.035 42.3311L230.735 42.301C230.465 42.2709 230.255 42.211 230.255 42.031C230.255 41.8208 230.465 41.7008 230.795 41.7008C231.155 41.7008 231.515 41.8508 231.695 41.9409L231.965 41.4306ZM248.713 41.1305C248.353 41.1305 248.112 41.3106 247.962 41.5507V41.1906H247.332V44.0718H247.962V42.4511C247.962 41.9709 248.173 41.7008 248.563 41.7008C248.683 41.7008 248.833 41.7309 248.953 41.7608L249.133 41.1606C249.013 41.1305 248.833 41.1305 248.713 41.1305ZM240.669 42.6312C240.669 43.5015 241.269 44.1318 242.2 44.1318C242.62 44.1318 242.92 44.0418 243.22 43.8017L242.92 43.2915C242.68 43.4716 242.44 43.5615 242.17 43.5615C241.66 43.5615 241.3 43.2014 241.3 42.6312C241.3 42.091 241.66 41.7307 242.17 41.7008C242.44 41.7008 242.68 41.7908 242.92 41.9709L243.22 41.4607C242.92 41.2205 242.62 41.1305 242.2 41.1305C241.269 41.1305 240.669 41.7608 240.669 42.6312ZM246.492 42.6312V41.1906H245.862V41.5507C245.651 41.2807 245.351 41.1305 244.961 41.1305C244.151 41.1305 243.521 41.7608 243.521 42.6312C243.521 43.5015 244.151 44.1318 244.961 44.1318C245.381 44.1318 245.681 43.9818 245.862 43.7117V44.0718H246.492V42.6312ZM244.181 42.6312C244.181 42.1209 244.511 41.7008 245.051 41.7008C245.561 41.7008 245.922 42.091 245.922 42.6312C245.922 43.1414 245.561 43.5615 245.051 43.5615C244.511 43.5315 244.181 43.1414 244.181 42.6312ZM236.648 41.1305C235.807 41.1305 235.207 41.7307 235.207 42.6312C235.207 43.5316 235.807 44.1318 236.677 44.1318C237.098 44.1318 237.518 44.0117 237.848 43.7417L237.548 43.2915C237.308 43.4716 237.008 43.5916 236.708 43.5916C236.317 43.5916 235.927 43.4116 235.837 42.9012H237.968V42.6612C237.998 41.7307 237.458 41.1305 236.647 41.1305H236.648ZM236.648 41.6707C237.038 41.6707 237.308 41.9109 237.368 42.3611H235.867C235.927 41.9709 236.197 41.6707 236.648 41.6707ZM252.284 42.6312V40.05H251.654V41.5507C251.444 41.2807 251.144 41.1305 250.754 41.1305C249.943 41.1305 249.313 41.7608 249.313 42.6312C249.313 43.5015 249.943 44.1318 250.754 44.1318C251.174 44.1318 251.474 43.9818 251.654 43.7117V44.0718H252.284V42.6312ZM249.973 42.6312C249.973 42.1209 250.303 41.7008 250.844 41.7008C251.354 41.7008 251.714 42.091 251.714 42.6312C251.714 43.1414 251.354 43.5615 250.844 43.5615C250.303 43.5315 249.973 43.1414 249.973 42.6312ZM228.904 42.6312V41.1906H228.274V41.5507C228.064 41.2807 227.764 41.1305 227.373 41.1305C226.563 41.1305 225.933 41.7608 225.933 42.6312C225.933 43.5015 226.563 44.1318 227.373 44.1318C227.794 44.1318 228.094 43.9818 228.274 43.7117V44.0718H228.904V42.6312ZM226.563 42.6312C226.563 42.1209 226.893 41.7008 227.433 41.7008C227.944 41.7008 228.304 42.091 228.304 42.6312C228.304 43.1414 227.944 43.5615 227.433 43.5615C226.893 43.5315 226.563 43.1414 226.563 42.6312Z" fill="#373A42"/>
<path d="M231.756 19.311H241.21V36.2985H231.756V19.311Z" fill="#FF8900"/>
<path d="M232.356 27.8047C232.356 24.3533 233.977 21.2919 236.468 19.311C234.637 17.8704 232.326 17 229.805 17C223.832 17 219 21.8321 219 27.8047C219 33.7773 223.832 38.6095 229.805 38.6095C232.326 38.6095 234.637 37.7391 236.468 36.2984C233.977 34.3476 232.356 31.2562 232.356 27.8047Z" fill="#FF3D71"/>
<path d="M253.966 27.8047C253.966 33.7773 249.134 38.6095 243.161 38.6095C240.64 38.6095 238.329 37.7391 236.498 36.2984C239.019 34.3176 240.61 31.2562 240.61 27.8047C240.61 24.3533 238.989 21.2919 236.498 19.311C238.329 17.8704 240.64 17 243.161 17C249.134 17 253.966 21.8621 253.966 27.8047H253.966Z" fill="#FFA000"/>
</g>
<path d="M34.2353 19H56.8235C59.1528 19 61.0588 20.9074 61.0588 23.2367V38.7647C61.0588 41.094 59.1528 43 56.8235 43H34.2353C31.906 43 30 41.094 30 38.7647V23.2353C30 20.906 31.906 19 34.2353 19Z" fill="white" fill-opacity="0.85"/>
<path d="M40.5878 34.5295C40.5878 34.9189 40.2714 35.2354 39.8819 35.2354H32.8231C32.4336 35.2354 32.1172 34.9189 32.1172 34.5295C32.1172 34.14 32.4336 33.8236 32.8231 33.8236H39.8819C40.2714 33.8236 40.5878 34.14 40.5878 34.5295Z" fill="#FFA000"/>
<path d="M40.5878 27.4706C40.5878 27.8601 40.2714 28.1765 39.8819 28.1765H32.8231C32.4336 28.1765 32.1172 27.8601 32.1172 27.4706C32.1172 27.0812 32.4336 26.7647 32.8231 26.7647H39.8819C40.2714 26.7647 40.5878 27.0812 40.5878 27.4706Z" fill="#FFA000"/>
<path d="M58.9407 34.5295C58.9407 34.9189 58.6243 35.2354 58.2348 35.2354H52.5877C52.1982 35.2354 51.8818 34.9189 51.8818 34.5295C51.8818 34.14 52.1982 33.8236 52.5877 33.8236H58.2348C58.6243 33.8236 58.9407 34.14 58.9407 34.5295Z" fill="#FFA000"/>
<path d="M58.9407 27.4706C58.9407 27.8601 58.6243 28.1765 58.2348 28.1765H52.5877C52.1982 28.1765 51.8818 27.8601 51.8818 27.4706C51.8818 27.0812 52.1982 26.7647 52.5877 26.7647H58.2348C58.6243 26.7647 58.9407 27.0812 58.9407 27.4706Z" fill="#FFA000"/>
<path d="M51.8828 27.4707V34.5296C51.8828 35.6973 50.9328 36.6472 49.7651 36.6472C49.3756 36.6472 49.0592 36.3308 49.0592 35.9413C49.0592 35.5519 49.3756 35.2355 49.7651 35.2355C50.1532 35.2355 50.471 34.9177 50.471 34.5296V27.4707C50.471 27.0826 50.1532 26.7649 49.7651 26.7649H48.3533C47.9639 26.7649 47.6475 26.4485 47.6475 26.059C47.6475 25.6695 47.9639 25.3531 48.3533 25.3531H49.7651C50.9328 25.3531 51.8828 26.303 51.8828 27.4707Z" fill="#FFA000"/>
<path d="M43.4121 26.0589C43.4121 26.4484 43.0956 26.7648 42.7062 26.7648H41.2944C40.9063 26.7648 40.5885 27.0825 40.5885 27.4706V34.5295C40.5885 34.9189 40.2721 35.2354 39.8826 35.2354C39.4932 35.2354 39.1768 34.9189 39.1768 34.5295V27.4706C39.1768 26.3029 40.1267 25.353 41.2944 25.353H42.7062C43.0956 25.353 43.4121 25.6694 43.4121 26.0589Z" fill="#FFA000"/>
<path d="M43.4118 23.2352V26.0588C43.4118 26.4482 43.0954 26.7646 42.7059 26.7646C42.3164 26.7646 42 26.4482 42 26.0588V23.2352C42 22.8458 42.3164 22.5294 42.7059 22.5294C43.0954 22.5294 43.4118 22.8458 43.4118 23.2352Z" fill="#FFA000"/>
<path d="M49.0592 23.2352V26.0588C49.0592 26.4482 48.7428 26.7646 48.3533 26.7646C47.9639 26.7646 47.6475 26.4482 47.6475 26.0588V23.2352C47.6475 22.8458 47.9639 22.5294 48.3533 22.5294C48.7428 22.5294 49.0592 22.8458 49.0592 23.2352Z" fill="#FFA000"/>
<path d="M43.4122 23.2354C43.4122 23.416 43.3432 23.5966 43.2061 23.7351C42.931 24.0102 42.4829 24.0102 42.2079 23.7351L40.7961 22.3234C40.5211 22.0483 40.5211 21.6002 40.7961 21.3252C41.0712 21.0501 41.5192 21.0501 41.7943 21.3252L43.2061 22.737C43.3432 22.8741 43.4122 23.0547 43.4122 23.2354Z" fill="#FFA000"/>
<path d="M50.4708 21.8236C50.4708 22.0042 50.4018 22.1848 50.2646 22.3234L48.8529 23.7351C48.5778 24.0102 48.1298 24.0102 47.8547 23.7351C47.5797 23.4601 47.5797 23.012 47.8547 22.737L49.2665 21.3252C49.5415 21.0501 49.9896 21.0501 50.2646 21.3252C50.4018 21.4624 50.4708 21.643 50.4708 21.8236Z" fill="#FFA000"/>
<path d="M43.4118 35.9413V38.7648C43.4118 39.1543 43.0954 39.4707 42.7059 39.4707C42.3164 39.4707 42 39.1543 42 38.7648V35.9413C42 35.5518 42.3164 35.2354 42.7059 35.2354C43.0954 35.2354 43.4118 35.5518 43.4118 35.9413Z" fill="#FFA000"/>
<path d="M49.0592 35.9413V38.7648C49.0592 39.1543 48.7428 39.4707 48.3533 39.4707C47.9639 39.4707 47.6475 39.1543 47.6475 38.7648V35.9413C47.6475 35.5518 47.9639 35.2354 48.3533 35.2354C48.7428 35.2354 49.0592 35.5518 49.0592 35.9413Z" fill="#FFA000"/>
<path d="M43.4122 38.7647C43.4122 38.9454 43.3432 39.126 43.2061 39.2645L41.7943 40.6763C41.5192 40.9513 41.0712 40.9513 40.7961 40.6763C40.5211 40.4012 40.5211 39.9532 40.7961 39.6781L42.2079 38.2664C42.4829 37.9913 42.931 37.9913 43.2061 38.2664C43.3432 38.4035 43.4122 38.5841 43.4122 38.7647Z" fill="#FFA000"/>
<path d="M50.4708 40.1765C50.4708 40.3571 50.4018 40.5377 50.2646 40.6763C49.9896 40.9513 49.5415 40.9513 49.2665 40.6763L47.8547 39.2645C47.5797 38.9895 47.5797 38.5414 47.8547 38.2664C48.1298 37.9913 48.5778 37.9913 48.8529 38.2664L50.2646 39.6781C50.4018 39.8153 50.4708 39.9959 50.4708 40.1765Z" fill="#FFA000"/>
<path d="M50.471 35.9413C50.471 36.3308 50.1546 36.6472 49.7651 36.6472H48.3533C47.9639 36.6472 47.6475 36.3308 47.6475 35.9413C47.6475 35.5519 47.9639 35.2355 48.3533 35.2355H49.7651C50.1546 35.2355 50.471 35.5519 50.471 35.9413Z" fill="#FFA000"/>
<path d="M35.136 142.843V149.023C35.136 149.711 34.924 150.263 34.5 150.679C34.076 151.087 33.516 151.291 32.82 151.291C32.116 151.291 31.552 151.083 31.128 150.667C30.704 150.243 30.492 149.667 30.492 148.939H31.584C31.592 149.347 31.696 149.679 31.896 149.935C32.104 150.191 32.412 150.319 32.82 150.319C33.228 150.319 33.532 150.199 33.732 149.959C33.932 149.711 34.032 149.399 34.032 149.023V142.843H35.136ZM41.5513 144.511C42.0473 144.511 42.4953 144.619 42.8953 144.835C43.2953 145.043 43.6073 145.359 43.8313 145.783C44.0633 146.207 44.1793 146.723 44.1793 147.331V151.207H43.0993V147.487C43.0993 146.831 42.9353 146.331 42.6073 145.987C42.2793 145.635 41.8313 145.459 41.2633 145.459C40.6873 145.459 40.2273 145.639 39.8833 145.999C39.5473 146.359 39.3793 146.883 39.3793 147.571V151.207H38.2873V142.327H39.3793V145.567C39.5953 145.231 39.8913 144.971 40.2673 144.787C40.6513 144.603 41.0793 144.511 41.5513 144.511ZM49.8311 151.315C49.2151 151.315 48.6551 151.175 48.1511 150.895C47.6551 150.615 47.2631 150.219 46.9751 149.707C46.6951 149.187 46.5551 148.587 46.5551 147.907C46.5551 147.235 46.6991 146.643 46.9871 146.131C47.2831 145.611 47.6831 145.215 48.1871 144.943C48.6911 144.663 49.2551 144.523 49.8791 144.523C50.5031 144.523 51.0671 144.663 51.5711 144.943C52.0751 145.215 52.4711 145.607 52.7591 146.119C53.0551 146.631 53.2031 147.227 53.2031 147.907C53.2031 148.587 53.0511 149.187 52.7471 149.707C52.4511 150.219 52.0471 150.615 51.5351 150.895C51.0231 151.175 50.4551 151.315 49.8311 151.315ZM49.8311 150.355C50.2231 150.355 50.5911 150.263 50.9351 150.079C51.2791 149.895 51.5551 149.619 51.7631 149.251C51.9791 148.883 52.0871 148.435 52.0871 147.907C52.0871 147.379 51.9831 146.931 51.7751 146.563C51.5671 146.195 51.2951 145.923 50.9591 145.747C50.6231 145.563 50.2591 145.471 49.8671 145.471C49.4671 145.471 49.0991 145.563 48.7631 145.747C48.4351 145.923 48.1711 146.195 47.9711 146.563C47.7711 146.931 47.6711 147.379 47.6711 147.907C47.6711 148.443 47.7671 148.895 47.9591 149.263C48.1591 149.631 48.4231 149.907 48.7511 150.091C49.0791 150.267 49.4391 150.355 49.8311 150.355ZM58.8428 144.511C59.6428 144.511 60.2908 144.755 60.7868 145.243C61.2828 145.723 61.5308 146.419 61.5308 147.331V151.207H60.4508V147.487C60.4508 146.831 60.2868 146.331 59.9588 145.987C59.6308 145.635 59.1828 145.459 58.6148 145.459C58.0388 145.459 57.5788 145.639 57.2348 145.999C56.8988 146.359 56.7308 146.883 56.7308 147.571V151.207H55.6388V144.631H56.7308V145.567C56.9468 145.231 57.2388 144.971 57.6068 144.787C57.9828 144.603 58.3948 144.511 58.8428 144.511ZM73.6618 142.843V143.731H71.3818V151.207H70.2898V143.731H67.9978V142.843H73.6618ZM78.874 151.315C78.258 151.315 77.698 151.175 77.194 150.895C76.698 150.615 76.306 150.219 76.018 149.707C75.738 149.187 75.598 148.587 75.598 147.907C75.598 147.235 75.742 146.643 76.03 146.131C76.326 145.611 76.726 145.215 77.23 144.943C77.734 144.663 78.298 144.523 78.922 144.523C79.546 144.523 80.11 144.663 80.614 144.943C81.118 145.215 81.514 145.607 81.802 146.119C82.098 146.631 82.246 147.227 82.246 147.907C82.246 148.587 82.094 149.187 81.79 149.707C81.494 150.219 81.09 150.615 80.578 150.895C80.066 151.175 79.498 151.315 78.874 151.315ZM78.874 150.355C79.266 150.355 79.634 150.263 79.978 150.079C80.322 149.895 80.598 149.619 80.806 149.251C81.022 148.883 81.13 148.435 81.13 147.907C81.13 147.379 81.026 146.931 80.818 146.563C80.61 146.195 80.338 145.923 80.002 145.747C79.666 145.563 79.302 145.471 78.91 145.471C78.51 145.471 78.142 145.563 77.806 145.747C77.478 145.923 77.214 146.195 77.014 146.563C76.814 146.931 76.714 147.379 76.714 147.907C76.714 148.443 76.81 148.895 77.002 149.263C77.202 149.631 77.466 149.907 77.794 150.091C78.122 150.267 78.482 150.355 78.874 150.355ZM92.5898 144.511C93.1018 144.511 93.5578 144.619 93.9578 144.835C94.3578 145.043 94.6738 145.359 94.9058 145.783C95.1378 146.207 95.2538 146.723 95.2538 147.331V151.207H94.1738V147.487C94.1738 146.831 94.0098 146.331 93.6818 145.987C93.3618 145.635 92.9258 145.459 92.3738 145.459C91.8058 145.459 91.3538 145.643 91.0178 146.011C90.6818 146.371 90.5138 146.895 90.5138 147.583V151.207H89.4338V147.487C89.4338 146.831 89.2698 146.331 88.9418 145.987C88.6218 145.635 88.1858 145.459 87.6338 145.459C87.0658 145.459 86.6138 145.643 86.2778 146.011C85.9418 146.371 85.7738 146.895 85.7738 147.583V151.207H84.6818V144.631H85.7738V145.579C85.9898 145.235 86.2778 144.971 86.6378 144.787C87.0058 144.603 87.4098 144.511 87.8498 144.511C88.4018 144.511 88.8898 144.635 89.3138 144.883C89.7378 145.131 90.0538 145.495 90.2618 145.975C90.4458 145.511 90.7498 145.151 91.1738 144.895C91.5978 144.639 92.0698 144.511 92.5898 144.511ZM100.373 151.315C99.8691 151.315 99.4171 151.231 99.0171 151.063C98.6171 150.887 98.3011 150.647 98.0691 150.343C97.8371 150.031 97.7091 149.675 97.6851 149.275H98.8131C98.8451 149.603 98.9971 149.871 99.2691 150.079C99.5491 150.287 99.9131 150.391 100.361 150.391C100.777 150.391 101.105 150.299 101.345 150.115C101.585 149.931 101.705 149.699 101.705 149.419C101.705 149.131 101.577 148.919 101.321 148.783C101.065 148.639 100.669 148.499 100.133 148.363C99.6451 148.235 99.2451 148.107 98.9331 147.979C98.6291 147.843 98.3651 147.647 98.1411 147.391C97.9251 147.127 97.8171 146.783 97.8171 146.359C97.8171 146.023 97.9171 145.715 98.1171 145.435C98.3171 145.155 98.6011 144.935 98.9691 144.775C99.3371 144.607 99.7571 144.523 100.229 144.523C100.957 144.523 101.545 144.707 101.993 145.075C102.441 145.443 102.681 145.947 102.713 146.587H101.621C101.597 146.243 101.457 145.967 101.201 145.759C100.953 145.551 100.617 145.447 100.193 145.447C99.8011 145.447 99.4891 145.531 99.2571 145.699C99.0251 145.867 98.9091 146.087 98.9091 146.359C98.9091 146.575 98.9771 146.755 99.1131 146.899C99.2571 147.035 99.4331 147.147 99.6411 147.235C99.8571 147.315 100.153 147.407 100.529 147.511C101.001 147.639 101.385 147.767 101.681 147.895C101.977 148.015 102.229 148.199 102.437 148.447C102.653 148.695 102.765 149.019 102.773 149.419C102.773 149.779 102.673 150.103 102.473 150.391C102.273 150.679 101.989 150.907 101.621 151.075C101.261 151.235 100.845 151.315 100.373 151.315ZM108.183 151.315C107.567 151.315 107.007 151.175 106.503 150.895C106.007 150.615 105.615 150.219 105.327 149.707C105.047 149.187 104.907 148.587 104.907 147.907C104.907 147.235 105.051 146.643 105.339 146.131C105.635 145.611 106.035 145.215 106.539 144.943C107.043 144.663 107.607 144.523 108.231 144.523C108.855 144.523 109.419 144.663 109.923 144.943C110.427 145.215 110.823 145.607 111.111 146.119C111.407 146.631 111.555 147.227 111.555 147.907C111.555 148.587 111.403 149.187 111.099 149.707C110.803 150.219 110.399 150.615 109.887 150.895C109.375 151.175 108.807 151.315 108.183 151.315ZM108.183 150.355C108.575 150.355 108.943 150.263 109.287 150.079C109.631 149.895 109.907 149.619 110.115 149.251C110.331 148.883 110.439 148.435 110.439 147.907C110.439 147.379 110.335 146.931 110.127 146.563C109.919 146.195 109.647 145.923 109.311 145.747C108.975 145.563 108.611 145.471 108.219 145.471C107.819 145.471 107.451 145.563 107.115 145.747C106.787 145.923 106.523 146.195 106.323 146.563C106.123 146.931 106.023 147.379 106.023 147.907C106.023 148.443 106.119 148.895 106.311 149.263C106.511 149.631 106.775 149.907 107.103 150.091C107.431 150.267 107.791 150.355 108.183 150.355ZM117.194 144.511C117.994 144.511 118.642 144.755 119.138 145.243C119.634 145.723 119.882 146.419 119.882 147.331V151.207H118.802V147.487C118.802 146.831 118.638 146.331 118.31 145.987C117.982 145.635 117.534 145.459 116.966 145.459C116.39 145.459 115.93 145.639 115.586 145.999C115.25 146.359 115.082 146.883 115.082 147.571V151.207H113.99V144.631H115.082V145.567C115.298 145.231 115.59 144.971 115.958 144.787C116.334 144.603 116.746 144.511 117.194 144.511Z" fill="white"/>
<path d="M167.016 143.731V146.527H170.064V147.427H167.016V150.307H170.424V151.207H165.924V142.831H170.424V143.731H167.016ZM177.508 151.207L175.948 148.759L174.448 151.207H173.308L175.432 147.943L173.308 144.631H174.544L176.104 147.067L177.592 144.631H178.732L176.62 147.883L178.744 151.207H177.508ZM182.911 145.843C183.127 145.467 183.447 145.155 183.871 144.907C184.303 144.651 184.803 144.523 185.371 144.523C185.955 144.523 186.483 144.663 186.955 144.943C187.435 145.223 187.811 145.619 188.083 146.131C188.355 146.635 188.491 147.223 188.491 147.895C188.491 148.559 188.355 149.151 188.083 149.671C187.811 150.191 187.435 150.595 186.955 150.883C186.483 151.171 185.955 151.315 185.371 151.315C184.811 151.315 184.315 151.191 183.883 150.943C183.459 150.687 183.135 150.371 182.911 149.995V154.327H181.819V144.631H182.911V145.843ZM187.375 147.895C187.375 147.399 187.275 146.967 187.075 146.599C186.875 146.231 186.603 145.951 186.259 145.759C185.923 145.567 185.551 145.471 185.143 145.471C184.743 145.471 184.371 145.571 184.027 145.771C183.691 145.963 183.419 146.247 183.211 146.623C183.011 146.991 182.911 147.419 182.911 147.907C182.911 148.403 183.011 148.839 183.211 149.215C183.419 149.583 183.691 149.867 184.027 150.067C184.371 150.259 184.743 150.355 185.143 150.355C185.551 150.355 185.923 150.259 186.259 150.067C186.603 149.867 186.875 149.583 187.075 149.215C187.275 148.839 187.375 148.399 187.375 147.895ZM192.276 151.279C192.068 151.279 191.892 151.207 191.748 151.063C191.604 150.919 191.532 150.743 191.532 150.535C191.532 150.327 191.604 150.151 191.748 150.007C191.892 149.863 192.068 149.791 192.276 149.791C192.476 149.791 192.644 149.863 192.78 150.007C192.924 150.151 192.996 150.327 192.996 150.535C192.996 150.743 192.924 150.919 192.78 151.063C192.644 151.207 192.476 151.279 192.276 151.279ZM201.335 150.331C202.351 149.515 203.147 148.847 203.723 148.327C204.299 147.799 204.783 147.251 205.175 146.683C205.575 146.107 205.775 145.543 205.775 144.991C205.775 144.471 205.647 144.063 205.391 143.767C205.143 143.463 204.739 143.311 204.179 143.311C203.635 143.311 203.211 143.483 202.907 143.827C202.611 144.163 202.451 144.615 202.427 145.183H201.371C201.403 144.287 201.675 143.595 202.187 143.107C202.699 142.619 203.359 142.375 204.167 142.375C204.991 142.375 205.643 142.603 206.123 143.059C206.611 143.515 206.855 144.143 206.855 144.943C206.855 145.607 206.655 146.255 206.255 146.887C205.863 147.511 205.415 148.063 204.911 148.543C204.407 149.015 203.763 149.567 202.979 150.199H207.107V151.111H201.335V150.331ZM210.105 149.275V148.447L214.317 142.615H215.625V148.327H216.825V149.275H215.625V151.207H214.545V149.275H210.105ZM214.593 143.755L211.365 148.327H214.593V143.755ZM229.375 139.903L226.087 153.247H225.007L228.283 139.903H229.375ZM238.021 146.779C238.021 145.403 238.245 144.331 238.693 143.563C239.141 142.787 239.925 142.399 241.045 142.399C242.157 142.399 242.937 142.787 243.385 143.563C243.833 144.331 244.057 145.403 244.057 146.779C244.057 148.179 243.833 149.267 243.385 150.043C242.937 150.819 242.157 151.207 241.045 151.207C239.925 151.207 239.141 150.819 238.693 150.043C238.245 149.267 238.021 148.179 238.021 146.779ZM242.977 146.779C242.977 146.083 242.929 145.495 242.833 145.015C242.745 144.527 242.557 144.135 242.269 143.839C241.989 143.543 241.581 143.395 241.045 143.395C240.501 143.395 240.085 143.543 239.797 143.839C239.517 144.135 239.329 144.527 239.233 145.015C239.145 145.495 239.101 146.083 239.101 146.779C239.101 147.499 239.145 148.103 239.233 148.591C239.329 149.079 239.517 149.471 239.797 149.767C240.085 150.063 240.501 150.211 241.045 150.211C241.581 150.211 241.989 150.063 242.269 149.767C242.557 149.471 242.745 149.079 242.833 148.591C242.929 148.103 242.977 147.499 242.977 146.779ZM247.533 144.715C247.589 143.979 247.873 143.403 248.385 142.987C248.897 142.571 249.561 142.363 250.377 142.363C250.921 142.363 251.389 142.463 251.781 142.663C252.181 142.855 252.481 143.119 252.681 143.455C252.889 143.791 252.993 144.171 252.993 144.595C252.993 145.091 252.849 145.519 252.561 145.879C252.281 146.239 251.913 146.471 251.457 146.575V146.635C251.977 146.763 252.389 147.015 252.693 147.391C252.997 147.767 253.148 148.259 253.148 148.867C253.148 149.323 253.045 149.735 252.837 150.103C252.629 150.463 252.317 150.747 251.901 150.955C251.485 151.163 250.985 151.267 250.401 151.267C249.553 151.267 248.857 151.047 248.312 150.607C247.769 150.159 247.465 149.527 247.401 148.711H248.457C248.513 149.191 248.709 149.583 249.045 149.887C249.381 150.191 249.829 150.343 250.389 150.343C250.949 150.343 251.373 150.199 251.661 149.911C251.957 149.615 252.105 149.235 252.105 148.771C252.105 148.171 251.905 147.739 251.505 147.475C251.105 147.211 250.501 147.079 249.693 147.079H249.417V146.167H249.705C250.441 146.159 250.997 146.039 251.373 145.807C251.749 145.567 251.937 145.199 251.937 144.703C251.937 144.279 251.797 143.939 251.517 143.683C251.245 143.427 250.853 143.299 250.34 143.299C249.845 143.299 249.445 143.427 249.141 143.683C248.837 143.939 248.657 144.283 248.601 144.715H247.533Z" fill="white"/>
<defs>
<clipPath id="clip0_457_26">
<rect width="35" height="27.207" fill="white" transform="translate(219 17)"/>
</clipPath>
</defs>
</svg>
