<svg width="644" height="644" viewBox="0 0 644 644" fill="none" xmlns="http://www.w3.org/2000/svg">
<path fill-rule="evenodd" clip-rule="evenodd" d="M181.234 466.748L188.507 459.474L201.818 472.785C212.809 483.776 225.187 493.301 238.719 500.968C247.559 505.977 257.088 510.749 263.547 512.23L260.695 523.823C260.695 523.823 231.101 520.947 181.234 466.748" fill="#884DFF"/>
<mask id="mask0_414_69" style="mask-type:luminance" maskUnits="userSpaceOnUse" x="192" y="388" width="226" height="123">
<path fill-rule="evenodd" clip-rule="evenodd" d="M192.429 455.553C192.429 455.553 250.038 517.374 295.749 509.973V509.973C347.389 501.609 417.75 421.771 417.75 421.771V421.771L384.973 388.994C308.081 467.524 295.979 474.302 272.608 470.222V470.222C249.237 466.143 220.259 434.483 220.259 434.483V434.483L207.73 431.034L192.429 455.553Z" fill="white"/>
</mask>
<g mask="url(#mask0_414_69)">
<path fill-rule="evenodd" clip-rule="evenodd" d="M353.538 418.38L379.227 392.691L394.898 408.363L388.397 414.864L406.218 433.302L385.173 454.347L353.538 418.38Z" fill="#C1C5D0"/>
</g>
<mask id="mask1_414_69" style="mask-type:luminance" maskUnits="userSpaceOnUse" x="192" y="388" width="226" height="123">
<path fill-rule="evenodd" clip-rule="evenodd" d="M192.429 455.553C192.429 455.553 250.038 517.374 295.749 509.973V509.973C347.389 501.609 417.75 421.771 417.75 421.771V421.771L384.973 388.994C308.081 467.524 295.979 474.302 272.608 470.222V470.222C249.237 466.143 220.259 434.483 220.259 434.483V434.483L207.73 431.034L192.429 455.553Z" fill="white"/>
</mask>
<g mask="url(#mask1_414_69)">
<path fill-rule="evenodd" clip-rule="evenodd" d="M332.079 439.84L351.265 421.473L381.361 456.934L361.409 476.885L332.079 439.84Z" fill="#FF3D71"/>
</g>
<mask id="mask2_414_69" style="mask-type:luminance" maskUnits="userSpaceOnUse" x="192" y="388" width="226" height="123">
<path fill-rule="evenodd" clip-rule="evenodd" d="M192.429 455.553C192.429 455.553 250.038 517.374 295.749 509.973V509.973C347.389 501.609 417.75 421.771 417.75 421.771V421.771L384.973 388.994C308.081 467.524 295.979 474.302 272.608 470.222V470.222C249.237 466.143 220.259 434.483 220.259 434.483V434.483L207.73 431.034L192.429 455.553Z" fill="white"/>
</mask>
<g mask="url(#mask2_414_69)">
<path fill-rule="evenodd" clip-rule="evenodd" d="M305.897 459.876C306.825 459.256 330.17 441.748 330.17 441.748L357.484 478.964L327.956 500.194L305.897 459.876Z" fill="#FF3D71"/>
</g>
<mask id="mask3_414_69" style="mask-type:luminance" maskUnits="userSpaceOnUse" x="192" y="388" width="226" height="123">
<path fill-rule="evenodd" clip-rule="evenodd" d="M192.429 455.553C192.429 455.553 250.038 517.374 295.749 509.973V509.973C347.389 501.609 417.75 421.771 417.75 421.771V421.771L384.973 388.994C308.081 467.524 295.979 474.302 272.608 470.222V470.222C249.237 466.143 220.259 434.483 220.259 434.483V434.483L207.73 431.034L192.429 455.553Z" fill="white"/>
</mask>
<g mask="url(#mask3_414_69)">
<path fill-rule="evenodd" clip-rule="evenodd" d="M290.911 468.102L303.576 462.196L323.475 502.524L285.221 516.785L290.911 468.102Z" fill="#884DFF"/>
</g>
<mask id="mask4_414_69" style="mask-type:luminance" maskUnits="userSpaceOnUse" x="192" y="388" width="226" height="123">
<path fill-rule="evenodd" clip-rule="evenodd" d="M192.429 455.553C192.429 455.553 250.038 517.374 295.749 509.973V509.973C347.389 501.609 417.75 421.771 417.75 421.771V421.771L384.973 388.994C308.081 467.524 295.979 474.302 272.608 470.222V470.222C249.237 466.143 220.259 434.483 220.259 434.483V434.483L207.73 431.034L192.429 455.553Z" fill="white"/>
</mask>
<g mask="url(#mask4_414_69)">
<path fill-rule="evenodd" clip-rule="evenodd" d="M261.163 464.971L279.807 468.758L274.338 488.978L284.299 491.512L279.794 515.48L269.465 514.747L270.102 509.191L241.919 499.58L261.163 464.971Z" fill="#C1C5D0"/>
</g>
<mask id="mask5_414_69" style="mask-type:luminance" maskUnits="userSpaceOnUse" x="192" y="388" width="226" height="123">
<path fill-rule="evenodd" clip-rule="evenodd" d="M192.429 455.553C192.429 455.553 250.038 517.374 295.749 509.973V509.973C347.389 501.609 417.75 421.771 417.75 421.771V421.771L384.973 388.994C308.081 467.524 295.979 474.302 272.608 470.222V470.222C249.237 466.143 220.259 434.483 220.259 434.483V434.483L207.73 431.034L192.429 455.553Z" fill="white"/>
</mask>
<g mask="url(#mask5_414_69)">
<path fill-rule="evenodd" clip-rule="evenodd" d="M242.414 448.179L258.089 462.617L237.922 496.508L215.786 477.879L242.414 448.179Z" fill="#C1C5D0"/>
</g>
<mask id="mask6_414_69" style="mask-type:luminance" maskUnits="userSpaceOnUse" x="192" y="388" width="226" height="123">
<path fill-rule="evenodd" clip-rule="evenodd" d="M192.429 455.553C192.429 455.553 250.038 517.374 295.749 509.973V509.973C347.389 501.609 417.75 421.771 417.75 421.771V421.771L384.973 388.994C308.081 467.524 295.979 474.302 272.608 470.222V470.222C249.237 466.143 220.259 434.483 220.259 434.483V434.483L207.73 431.034L192.429 455.553Z" fill="white"/>
</mask>
<g mask="url(#mask6_414_69)">
<path fill-rule="evenodd" clip-rule="evenodd" d="M211.791 473.886L240.058 445.618L224.592 430.152L212.315 442.429L208.935 439.048L192.428 455.555L211.791 473.886Z" fill="#884DFF"/>
</g>
<mask id="mask7_414_69" style="mask-type:luminance" maskUnits="userSpaceOnUse" x="192" y="388" width="226" height="123">
<path fill-rule="evenodd" clip-rule="evenodd" d="M192.429 455.553C192.429 455.553 250.038 517.374 295.749 509.973V509.973C347.389 501.609 417.75 421.771 417.75 421.771V421.771L384.973 388.994C308.081 467.524 295.979 474.302 272.608 470.222V470.222C249.237 466.143 220.259 434.483 220.259 434.483V434.483L207.73 431.034L192.429 455.553Z" fill="white"/>
</mask>
<g mask="url(#mask7_414_69)">
<path fill-rule="evenodd" clip-rule="evenodd" d="M396.392 400.415L417.748 421.771L409.392 430.127L395.259 415.994L400.365 410.888L393.142 403.665L396.392 400.415Z" fill="#C1C5D0"/>
</g>
<mask id="mask8_414_69" style="mask-type:luminance" maskUnits="userSpaceOnUse" x="147" y="429" width="318" height="138">
<path fill-rule="evenodd" clip-rule="evenodd" d="M147.343 500.639C230.062 580.883 286.593 568.085 309.051 562.276V562.276C380.299 543.835 462.868 469.907 464.434 468.501V468.501L464.456 468.479L431.213 429.203L403.377 447.585C403.377 447.585 348.279 510.917 296.768 525.954V525.954C239.99 542.528 172.103 475.878 172.103 475.878V475.878L147.343 500.639Z" fill="white"/>
</mask>
<g mask="url(#mask8_414_69)">
<path fill-rule="evenodd" clip-rule="evenodd" d="M140.844 507.137L177.675 470.306L202.156 494.787L169.952 531.498L140.844 507.137Z" fill="#884DFF"/>
</g>
<mask id="mask9_414_69" style="mask-type:luminance" maskUnits="userSpaceOnUse" x="147" y="429" width="318" height="138">
<path fill-rule="evenodd" clip-rule="evenodd" d="M147.343 500.639C230.062 580.883 286.593 568.085 309.051 562.276V562.276C380.299 543.835 462.868 469.907 464.434 468.501V468.501L464.456 468.479L431.213 429.203L403.377 447.585C403.377 447.585 348.279 510.917 296.768 525.954V525.954C239.99 542.528 172.103 475.878 172.103 475.878V475.878L147.343 500.639Z" fill="white"/>
</mask>
<g mask="url(#mask9_414_69)">
<path fill-rule="evenodd" clip-rule="evenodd" d="M174.671 532.923L204.406 497.042L230.876 516.869L206.59 554.112L174.671 532.923Z" fill="#884DFF"/>
</g>
<mask id="mask10_414_69" style="mask-type:luminance" maskUnits="userSpaceOnUse" x="147" y="429" width="318" height="138">
<path fill-rule="evenodd" clip-rule="evenodd" d="M147.343 500.639C230.062 580.883 286.593 568.085 309.051 562.276V562.276C380.299 543.835 462.868 469.907 464.434 468.501V468.501L464.456 468.479L431.213 429.203L403.377 447.585C403.377 447.585 348.279 510.917 296.768 525.954V525.954C239.99 542.528 172.103 475.878 172.103 475.878V475.878L147.343 500.639Z" fill="white"/>
</mask>
<g mask="url(#mask10_414_69)">
<path fill-rule="evenodd" clip-rule="evenodd" d="M234.918 517.488L257.214 525.263L246.777 564.167L211.186 556.43L234.918 517.488Z" fill="#884DFF"/>
</g>
<mask id="mask11_414_69" style="mask-type:luminance" maskUnits="userSpaceOnUse" x="147" y="429" width="318" height="138">
<path fill-rule="evenodd" clip-rule="evenodd" d="M147.343 500.639C230.062 580.883 286.593 568.085 309.051 562.276V562.276C380.299 543.835 462.868 469.907 464.434 468.501V468.501L464.456 468.479L431.213 429.203L403.377 447.585C403.377 447.585 348.279 510.917 296.768 525.954V525.954C239.99 542.528 172.103 475.878 172.103 475.878V475.878L147.343 500.639Z" fill="white"/>
</mask>
<g mask="url(#mask11_414_69)">
<path fill-rule="evenodd" clip-rule="evenodd" d="M260.535 526.358L282.888 526.005L286.592 568.086L251.235 565.785L260.535 526.358Z" fill="#884DFF"/>
</g>
<mask id="mask12_414_69" style="mask-type:luminance" maskUnits="userSpaceOnUse" x="147" y="429" width="318" height="138">
<path fill-rule="evenodd" clip-rule="evenodd" d="M147.343 500.639C230.062 580.883 286.593 568.085 309.051 562.276V562.276C380.299 543.835 462.868 469.907 464.434 468.501V468.501L464.456 468.479L431.213 429.203L403.377 447.585C403.377 447.585 348.279 510.917 296.768 525.954V525.954C239.99 542.528 172.103 475.878 172.103 475.878V475.878L147.343 500.639Z" fill="white"/>
</mask>
<g mask="url(#mask12_414_69)">
<path fill-rule="evenodd" clip-rule="evenodd" d="M289.496 526.965L311.305 520.38L326.172 559.288L293.4 568.707L289.496 526.965Z" fill="#884DFF"/>
</g>
<mask id="mask13_414_69" style="mask-type:luminance" maskUnits="userSpaceOnUse" x="147" y="429" width="318" height="138">
<path fill-rule="evenodd" clip-rule="evenodd" d="M147.343 500.639C230.062 580.883 286.593 568.085 309.051 562.276V562.276C380.299 543.835 462.868 469.907 464.434 468.501V468.501L464.456 468.479L431.213 429.203L403.377 447.585C403.377 447.585 348.279 510.917 296.768 525.954V525.954C239.99 542.528 172.103 475.878 172.103 475.878V475.878L147.343 500.639Z" fill="white"/>
</mask>
<g mask="url(#mask13_414_69)">
<path fill-rule="evenodd" clip-rule="evenodd" d="M315.861 519.358L337.03 506.637L366.358 541.072L331.912 557.54L315.861 519.358Z" fill="#884DFF"/>
</g>
<mask id="mask14_414_69" style="mask-type:luminance" maskUnits="userSpaceOnUse" x="147" y="429" width="318" height="138">
<path fill-rule="evenodd" clip-rule="evenodd" d="M147.343 500.639C230.062 580.883 286.593 568.085 309.051 562.276V562.276C380.299 543.835 462.868 469.907 464.434 468.501V468.501L464.456 468.479L431.213 429.203L403.377 447.585C403.377 447.585 348.279 510.917 296.768 525.954V525.954C239.99 542.528 172.103 475.878 172.103 475.878V475.878L147.343 500.639Z" fill="white"/>
</mask>
<g mask="url(#mask14_414_69)">
<path fill-rule="evenodd" clip-rule="evenodd" d="M340.584 504.468L364.874 482.022L402.663 521.669L371.298 538.897L340.584 504.468Z" fill="#FF3D71"/>
</g>
<mask id="mask15_414_69" style="mask-type:luminance" maskUnits="userSpaceOnUse" x="147" y="429" width="318" height="138">
<path fill-rule="evenodd" clip-rule="evenodd" d="M147.343 500.639C230.062 580.883 286.593 568.085 309.051 562.276V562.276C380.299 543.835 462.868 469.907 464.434 468.501V468.501L464.456 468.479L431.213 429.203L403.377 447.585C403.377 447.585 348.279 510.917 296.768 525.954V525.954C239.99 542.528 172.103 475.878 172.103 475.878V475.878L147.343 500.639Z" fill="white"/>
</mask>
<g mask="url(#mask15_414_69)">
<path fill-rule="evenodd" clip-rule="evenodd" d="M368.069 479.646L395.949 455.012L436.936 496L406.377 517.954L368.069 479.646Z" fill="#C1C5D0"/>
</g>
<mask id="mask16_414_69" style="mask-type:luminance" maskUnits="userSpaceOnUse" x="147" y="429" width="318" height="138">
<path fill-rule="evenodd" clip-rule="evenodd" d="M147.343 500.639C230.062 580.883 286.593 568.085 309.051 562.276V562.276C380.299 543.835 462.868 469.907 464.434 468.501V468.501L464.456 468.479L431.213 429.203L403.377 447.585C403.377 447.585 348.279 510.917 296.768 525.954V525.954C239.99 542.528 172.103 475.878 172.103 475.878V475.878L147.343 500.639Z" fill="white"/>
</mask>
<g mask="url(#mask16_414_69)">
<path fill-rule="evenodd" clip-rule="evenodd" d="M398.835 452.125L403.375 447.585L414.862 459.072L434.954 438.98L446.222 450.248L434.796 461.674L453.029 479.907L439.823 493.113L398.835 452.125Z" fill="#C1C5D0"/>
</g>
<mask id="mask17_414_69" style="mask-type:luminance" maskUnits="userSpaceOnUse" x="147" y="429" width="318" height="138">
<path fill-rule="evenodd" clip-rule="evenodd" d="M147.343 500.639C230.062 580.883 286.593 568.085 309.051 562.276V562.276C380.299 543.835 462.868 469.907 464.434 468.501V468.501L464.456 468.479L431.213 429.203L403.377 447.585C403.377 447.585 348.279 510.917 296.768 525.954V525.954C239.99 542.528 172.103 475.878 172.103 475.878V475.878L147.343 500.639Z" fill="white"/>
</mask>
<g mask="url(#mask17_414_69)">
<path fill-rule="evenodd" clip-rule="evenodd" d="M456.099 476.837L464.455 468.482L449.295 453.322L440.939 461.677L456.099 476.837Z" fill="#FF3D71"/>
</g>
<path fill-rule="evenodd" clip-rule="evenodd" d="M176.625 462.139L183.898 454.865L170.588 441.555C159.598 430.565 150.072 418.185 142.405 404.654C137.395 395.814 132.625 386.286 131.143 379.827L119.55 382.678C119.55 382.678 122.426 412.273 176.625 462.139" fill="#884DFF"/>
<mask id="mask18_414_69" style="mask-type:luminance" maskUnits="userSpaceOnUse" x="132" y="225" width="123" height="226">
<path fill-rule="evenodd" clip-rule="evenodd" d="M133.401 347.625C125.998 393.334 187.819 450.943 187.819 450.943V450.943L212.339 435.642L208.891 423.114C208.891 423.114 177.231 394.137 173.151 370.765V370.765C169.072 347.394 175.848 335.291 254.377 258.398V258.398L221.601 225.622C221.601 225.622 214.198 232.146 203.658 242.686V242.686C179.598 266.748 139.215 311.714 133.401 347.625V347.625Z" fill="white"/>
</mask>
<g mask="url(#mask18_414_69)">
<path fill-rule="evenodd" clip-rule="evenodd" d="M224.991 289.834L250.68 264.145L235.009 248.474L228.508 254.975L210.07 237.154L189.024 258.199L224.991 289.834Z" fill="#FF3D71"/>
</g>
<mask id="mask19_414_69" style="mask-type:luminance" maskUnits="userSpaceOnUse" x="132" y="225" width="123" height="226">
<path fill-rule="evenodd" clip-rule="evenodd" d="M133.401 347.625C125.998 393.334 187.819 450.943 187.819 450.943V450.943L212.339 435.642L208.891 423.114C208.891 423.114 177.231 394.137 173.151 370.765V370.765C169.072 347.394 175.848 335.291 254.377 258.398V258.398L221.601 225.622C221.601 225.622 214.198 232.146 203.658 242.686V242.686C179.598 266.748 139.215 311.714 133.401 347.625V347.625Z" fill="white"/>
</mask>
<g mask="url(#mask19_414_69)">
<path fill-rule="evenodd" clip-rule="evenodd" d="M203.533 311.294L221.9 292.108L186.441 262.013L166.489 281.965L203.533 311.294Z" fill="#FF3D71"/>
</g>
<mask id="mask20_414_69" style="mask-type:luminance" maskUnits="userSpaceOnUse" x="132" y="225" width="123" height="226">
<path fill-rule="evenodd" clip-rule="evenodd" d="M133.401 347.625C125.998 393.334 187.819 450.943 187.819 450.943V450.943L212.339 435.642L208.891 423.114C208.891 423.114 177.231 394.137 173.151 370.765V370.765C169.072 347.394 175.848 335.291 254.377 258.398V258.398L221.601 225.622C221.601 225.622 214.198 232.146 203.658 242.686V242.686C179.598 266.748 139.215 311.714 133.401 347.625V347.625Z" fill="white"/>
</mask>
<g mask="url(#mask20_414_69)">
<path fill-rule="evenodd" clip-rule="evenodd" d="M183.496 337.475C184.116 336.547 201.624 313.202 201.624 313.202L164.408 285.888L143.178 315.416L183.496 337.475Z" fill="#FF3D71"/>
</g>
<mask id="mask21_414_69" style="mask-type:luminance" maskUnits="userSpaceOnUse" x="132" y="225" width="123" height="226">
<path fill-rule="evenodd" clip-rule="evenodd" d="M133.401 347.625C125.998 393.334 187.819 450.943 187.819 450.943V450.943L212.339 435.642L208.891 423.114C208.891 423.114 177.231 394.137 173.151 370.765V370.765C169.072 347.394 175.848 335.291 254.377 258.398V258.398L221.601 225.622C221.601 225.622 214.198 232.146 203.658 242.686V242.686C179.598 266.748 139.215 311.714 133.401 347.625V347.625Z" fill="white"/>
</mask>
<g mask="url(#mask21_414_69)">
<path fill-rule="evenodd" clip-rule="evenodd" d="M175.272 352.462L181.177 339.796L140.849 319.896L126.589 358.152L175.272 352.462Z" fill="#FF3D71"/>
</g>
<mask id="mask22_414_69" style="mask-type:luminance" maskUnits="userSpaceOnUse" x="132" y="225" width="123" height="226">
<path fill-rule="evenodd" clip-rule="evenodd" d="M133.401 347.625C125.998 393.334 187.819 450.943 187.819 450.943V450.943L212.339 435.642L208.891 423.114C208.891 423.114 177.231 394.137 173.151 370.765V370.765C169.072 347.394 175.848 335.291 254.377 258.398V258.398L221.601 225.622C221.601 225.622 214.198 232.146 203.658 242.686V242.686C179.598 266.748 139.215 311.714 133.401 347.625V347.625Z" fill="white"/>
</mask>
<g mask="url(#mask22_414_69)">
<path fill-rule="evenodd" clip-rule="evenodd" d="M178.402 382.21L174.616 363.567L154.396 369.036L151.861 359.074L127.892 363.579L128.627 373.909L134.182 373.271L143.794 401.455L178.402 382.21Z" fill="#FF3D71"/>
</g>
<mask id="mask23_414_69" style="mask-type:luminance" maskUnits="userSpaceOnUse" x="132" y="225" width="123" height="226">
<path fill-rule="evenodd" clip-rule="evenodd" d="M133.401 347.625C125.998 393.334 187.819 450.943 187.819 450.943V450.943L212.339 435.642L208.891 423.114C208.891 423.114 177.231 394.137 173.151 370.765V370.765C169.072 347.394 175.848 335.291 254.377 258.398V258.398L221.601 225.622C221.601 225.622 214.198 232.146 203.658 242.686V242.686C179.598 266.748 139.215 311.714 133.401 347.625V347.625Z" fill="white"/>
</mask>
<g mask="url(#mask23_414_69)">
<path fill-rule="evenodd" clip-rule="evenodd" d="M195.194 400.959L180.755 385.283L146.865 405.451L165.493 427.586L195.194 400.959Z" fill="#FF3D71"/>
</g>
<mask id="mask24_414_69" style="mask-type:luminance" maskUnits="userSpaceOnUse" x="132" y="225" width="123" height="226">
<path fill-rule="evenodd" clip-rule="evenodd" d="M133.401 347.625C125.998 393.334 187.819 450.943 187.819 450.943V450.943L212.339 435.642L208.891 423.114C208.891 423.114 177.231 394.137 173.151 370.765V370.765C169.072 347.394 175.848 335.291 254.377 258.398V258.398L221.601 225.622C221.601 225.622 214.198 232.146 203.658 242.686V242.686C179.598 266.748 139.215 311.714 133.401 347.625V347.625Z" fill="white"/>
</mask>
<g mask="url(#mask24_414_69)">
<path fill-rule="evenodd" clip-rule="evenodd" d="M169.488 431.583L197.756 403.315L213.222 418.781L200.945 431.058L204.324 434.438L187.817 450.945L169.488 431.583Z" fill="#FF3D71"/>
</g>
<mask id="mask25_414_69" style="mask-type:luminance" maskUnits="userSpaceOnUse" x="132" y="225" width="123" height="226">
<path fill-rule="evenodd" clip-rule="evenodd" d="M133.401 347.625C125.998 393.334 187.819 450.943 187.819 450.943V450.943L212.339 435.642L208.891 423.114C208.891 423.114 177.231 394.137 173.151 370.765V370.765C169.072 347.394 175.848 335.291 254.377 258.398V258.398L221.601 225.622C221.601 225.622 214.198 232.146 203.658 242.686V242.686C179.598 266.748 139.215 311.714 133.401 347.625V347.625Z" fill="white"/>
</mask>
<g mask="url(#mask25_414_69)">
<path fill-rule="evenodd" clip-rule="evenodd" d="M242.957 246.979L221.601 225.623L213.245 233.979L227.38 248.114L232.486 243.008L239.707 250.229L242.957 246.979Z" fill="#FF3D71"/>
</g>
<mask id="mask26_414_69" style="mask-type:luminance" maskUnits="userSpaceOnUse" x="76" y="178" width="139" height="319">
<path fill-rule="evenodd" clip-rule="evenodd" d="M174.893 178.917C174.893 178.917 99.7137 262.388 81.098 334.323V334.323C75.2863 356.778 62.4914 413.313 142.734 496.03V496.03L167.494 471.269C167.494 471.269 100.843 403.381 117.419 346.605V346.605C132.455 295.094 195.79 239.998 195.79 239.998V239.998L214.17 212.161L174.893 178.917Z" fill="white"/>
</mask>
<g mask="url(#mask26_414_69)">
<path fill-rule="evenodd" clip-rule="evenodd" d="M136.235 502.529L173.066 465.698L148.587 441.218L111.876 473.421L136.235 502.529Z" fill="#884DFF"/>
</g>
<mask id="mask27_414_69" style="mask-type:luminance" maskUnits="userSpaceOnUse" x="76" y="178" width="139" height="319">
<path fill-rule="evenodd" clip-rule="evenodd" d="M174.893 178.917C174.893 178.917 99.7137 262.388 81.098 334.323V334.323C75.2863 356.778 62.4914 413.313 142.734 496.03V496.03L167.494 471.269C167.494 471.269 100.843 403.381 117.419 346.605V346.605C132.455 295.094 195.79 239.998 195.79 239.998V239.998L214.17 212.161L174.893 178.917Z" fill="white"/>
</mask>
<g mask="url(#mask27_414_69)">
<path fill-rule="evenodd" clip-rule="evenodd" d="M110.45 468.701L146.331 438.967L126.503 412.496L89.2603 436.782L110.45 468.701Z" fill="#C1C5D0"/>
</g>
<mask id="mask28_414_69" style="mask-type:luminance" maskUnits="userSpaceOnUse" x="76" y="178" width="139" height="319">
<path fill-rule="evenodd" clip-rule="evenodd" d="M174.893 178.917C174.893 178.917 99.7137 262.388 81.098 334.323V334.323C75.2863 356.778 62.4914 413.313 142.734 496.03V496.03L167.494 471.269C167.494 471.269 100.843 403.381 117.419 346.605V346.605C132.455 295.094 195.79 239.998 195.79 239.998V239.998L214.17 212.161L174.893 178.917Z" fill="white"/>
</mask>
<g mask="url(#mask28_414_69)">
<path fill-rule="evenodd" clip-rule="evenodd" d="M125.884 408.455L118.11 386.159L79.2062 396.597L86.9433 432.187L125.884 408.455Z" fill="#884DFF"/>
</g>
<mask id="mask29_414_69" style="mask-type:luminance" maskUnits="userSpaceOnUse" x="76" y="178" width="139" height="319">
<path fill-rule="evenodd" clip-rule="evenodd" d="M174.893 178.917C174.893 178.917 99.7137 262.388 81.098 334.323V334.323C75.2863 356.778 62.4914 413.313 142.734 496.03V496.03L167.494 471.269C167.494 471.269 100.843 403.381 117.419 346.605V346.605C132.455 295.094 195.79 239.998 195.79 239.998V239.998L214.17 212.161L174.893 178.917Z" fill="white"/>
</mask>
<g mask="url(#mask29_414_69)">
<path fill-rule="evenodd" clip-rule="evenodd" d="M117.013 382.837L117.367 360.484L75.2851 356.781L77.5869 392.137L117.013 382.837Z" fill="#C1C5D0"/>
</g>
<mask id="mask30_414_69" style="mask-type:luminance" maskUnits="userSpaceOnUse" x="76" y="178" width="139" height="319">
<path fill-rule="evenodd" clip-rule="evenodd" d="M174.893 178.917C174.893 178.917 99.7137 262.388 81.098 334.323V334.323C75.2863 356.778 62.4914 413.313 142.734 496.03V496.03L167.494 471.269C167.494 471.269 100.843 403.381 117.419 346.605V346.605C132.455 295.094 195.79 239.998 195.79 239.998V239.998L214.17 212.161L174.893 178.917Z" fill="white"/>
</mask>
<g mask="url(#mask30_414_69)">
<path fill-rule="evenodd" clip-rule="evenodd" d="M116.407 353.876L122.993 332.068L84.0846 317.201L74.667 349.974L116.407 353.876Z" fill="#884DFF"/>
</g>
<mask id="mask31_414_69" style="mask-type:luminance" maskUnits="userSpaceOnUse" x="76" y="178" width="139" height="319">
<path fill-rule="evenodd" clip-rule="evenodd" d="M174.893 178.917C174.893 178.917 99.7137 262.388 81.098 334.323V334.323C75.2863 356.778 62.4914 413.313 142.734 496.03V496.03L167.494 471.269C167.494 471.269 100.843 403.381 117.419 346.605V346.605C132.455 295.094 195.79 239.998 195.79 239.998V239.998L214.17 212.161L174.893 178.917Z" fill="white"/>
</mask>
<g mask="url(#mask31_414_69)">
<path fill-rule="evenodd" clip-rule="evenodd" d="M124.015 327.512L136.735 306.342L102.3 277.013L85.8319 311.459L124.015 327.512Z" fill="#884DFF"/>
</g>
<mask id="mask32_414_69" style="mask-type:luminance" maskUnits="userSpaceOnUse" x="76" y="178" width="139" height="319">
<path fill-rule="evenodd" clip-rule="evenodd" d="M174.893 178.917C174.893 178.917 99.7137 262.388 81.098 334.323V334.323C75.2863 356.778 62.4914 413.313 142.734 496.03V496.03L167.494 471.269C167.494 471.269 100.843 403.381 117.419 346.605V346.605C132.455 295.094 195.79 239.998 195.79 239.998V239.998L214.17 212.161L174.893 178.917Z" fill="white"/>
</mask>
<g mask="url(#mask32_414_69)">
<path fill-rule="evenodd" clip-rule="evenodd" d="M138.905 302.789L161.351 278.499L121.706 240.712L104.477 272.076L138.905 302.789Z" fill="#FF3D71"/>
</g>
<mask id="mask33_414_69" style="mask-type:luminance" maskUnits="userSpaceOnUse" x="76" y="178" width="139" height="319">
<path fill-rule="evenodd" clip-rule="evenodd" d="M174.893 178.917C174.893 178.917 99.7137 262.388 81.098 334.323V334.323C75.2863 356.778 62.4914 413.313 142.734 496.03V496.03L167.494 471.269C167.494 471.269 100.843 403.381 117.419 346.605V346.605C132.455 295.094 195.79 239.998 195.79 239.998V239.998L214.17 212.161L174.893 178.917Z" fill="white"/>
</mask>
<g mask="url(#mask33_414_69)">
<path fill-rule="evenodd" clip-rule="evenodd" d="M163.727 275.304L188.361 247.426L147.374 206.438L125.42 236.997L163.727 275.304Z" fill="#FF3D71"/>
</g>
<mask id="mask34_414_69" style="mask-type:luminance" maskUnits="userSpaceOnUse" x="76" y="178" width="139" height="319">
<path fill-rule="evenodd" clip-rule="evenodd" d="M174.893 178.917C174.893 178.917 99.7137 262.388 81.098 334.323V334.323C75.2863 356.778 62.4914 413.313 142.734 496.03V496.03L167.494 471.269C167.494 471.269 100.843 403.381 117.419 346.605V346.605C132.455 295.094 195.79 239.998 195.79 239.998V239.998L214.17 212.161L174.893 178.917Z" fill="white"/>
</mask>
<g mask="url(#mask34_414_69)">
<path fill-rule="evenodd" clip-rule="evenodd" d="M191.248 244.538L195.787 239.998L184.299 228.51L204.392 208.417L193.123 197.149L181.697 208.576L163.465 190.344L150.26 203.55L191.248 244.538Z" fill="#FF3D71"/>
</g>
<mask id="mask35_414_69" style="mask-type:luminance" maskUnits="userSpaceOnUse" x="76" y="178" width="139" height="319">
<path fill-rule="evenodd" clip-rule="evenodd" d="M174.893 178.917C174.893 178.917 99.7137 262.388 81.098 334.323V334.323C75.2863 356.778 62.4914 413.313 142.734 496.03V496.03L167.494 471.269C167.494 471.269 100.843 403.381 117.419 346.605V346.605C132.455 295.094 195.79 239.998 195.79 239.998V239.998L214.17 212.161L174.893 178.917Z" fill="white"/>
</mask>
<g mask="url(#mask35_414_69)">
<path fill-rule="evenodd" clip-rule="evenodd" d="M181.696 202.434L190.052 194.078L174.893 178.919L166.537 187.275L181.696 202.434Z" fill="#FF3D71"/>
</g>
<path fill-rule="evenodd" clip-rule="evenodd" d="M467.005 180.977L459.732 188.25L473.043 201.561C484.034 212.552 493.558 224.93 501.225 238.462C506.235 247.302 511.006 256.831 512.488 263.29L524.08 260.438C524.08 260.438 521.205 230.844 467.005 180.977" fill="#FF8900"/>
<mask id="mask36_414_69" style="mask-type:luminance" maskUnits="userSpaceOnUse" x="389" y="192" width="122" height="226">
<path fill-rule="evenodd" clip-rule="evenodd" d="M434.741 220.002C434.741 220.002 466.402 248.978 470.48 272.351V272.351C474.56 295.722 467.782 307.823 389.253 384.714V384.714L422.03 417.491C422.03 417.491 501.868 347.131 510.23 295.492V295.492C517.632 249.781 455.812 192.17 455.812 192.17V192.17L431.291 207.473L434.741 220.002Z" fill="white"/>
</mask>
<g mask="url(#mask36_414_69)">
<path fill-rule="evenodd" clip-rule="evenodd" d="M418.637 353.282L392.949 378.969L408.62 394.641L415.12 388.141L433.559 405.962L454.604 384.916L418.637 353.282Z" fill="#FF3D71"/>
</g>
<mask id="mask37_414_69" style="mask-type:luminance" maskUnits="userSpaceOnUse" x="389" y="192" width="122" height="226">
<path fill-rule="evenodd" clip-rule="evenodd" d="M434.741 220.002C434.741 220.002 466.402 248.978 470.48 272.351V272.351C474.56 295.722 467.782 307.823 389.253 384.714V384.714L422.03 417.491C422.03 417.491 501.868 347.131 510.23 295.492V295.492C517.632 249.781 455.812 192.17 455.812 192.17V192.17L431.291 207.473L434.741 220.002Z" fill="white"/>
</mask>
<g mask="url(#mask37_414_69)">
<path fill-rule="evenodd" clip-rule="evenodd" d="M440.096 331.823L421.729 351.009L457.19 381.105L477.141 361.154L440.096 331.823Z" fill="#FF3D71"/>
</g>
<mask id="mask38_414_69" style="mask-type:luminance" maskUnits="userSpaceOnUse" x="389" y="192" width="122" height="226">
<path fill-rule="evenodd" clip-rule="evenodd" d="M434.741 220.002C434.741 220.002 466.402 248.978 470.48 272.351V272.351C474.56 295.722 467.782 307.823 389.253 384.714V384.714L422.03 417.491C422.03 417.491 501.868 347.131 510.23 295.492V295.492C517.632 249.781 455.812 192.17 455.812 192.17V192.17L431.291 207.473L434.741 220.002Z" fill="white"/>
</mask>
<g mask="url(#mask38_414_69)">
<path fill-rule="evenodd" clip-rule="evenodd" d="M460.132 305.641C459.512 306.569 442.004 329.914 442.004 329.914L479.22 357.228L500.45 327.7L460.132 305.641Z" fill="#FF8900"/>
</g>
<mask id="mask39_414_69" style="mask-type:luminance" maskUnits="userSpaceOnUse" x="389" y="192" width="122" height="226">
<path fill-rule="evenodd" clip-rule="evenodd" d="M434.741 220.002C434.741 220.002 466.402 248.978 470.48 272.351V272.351C474.56 295.722 467.782 307.823 389.253 384.714V384.714L422.03 417.491C422.03 417.491 501.868 347.131 510.23 295.492V295.492C517.632 249.781 455.812 192.17 455.812 192.17V192.17L431.291 207.473L434.741 220.002Z" fill="white"/>
</mask>
<g mask="url(#mask39_414_69)">
<path fill-rule="evenodd" clip-rule="evenodd" d="M468.361 290.654L462.454 303.319L502.783 323.218L517.044 284.963L468.361 290.654Z" fill="#FF8900"/>
</g>
<mask id="mask40_414_69" style="mask-type:luminance" maskUnits="userSpaceOnUse" x="389" y="192" width="122" height="226">
<path fill-rule="evenodd" clip-rule="evenodd" d="M434.741 220.002C434.741 220.002 466.402 248.978 470.48 272.351V272.351C474.56 295.722 467.782 307.823 389.253 384.714V384.714L422.03 417.491C422.03 417.491 501.868 347.131 510.23 295.492V295.492C517.632 249.781 455.812 192.17 455.812 192.17V192.17L431.291 207.473L434.741 220.002Z" fill="white"/>
</mask>
<g mask="url(#mask40_414_69)">
<path fill-rule="evenodd" clip-rule="evenodd" d="M465.227 260.907L469.015 279.551L489.235 274.082L491.768 284.043L515.737 279.538L515.003 269.209L509.449 269.844L499.837 241.663L465.227 260.907Z" fill="#C1C5D0"/>
</g>
<mask id="mask41_414_69" style="mask-type:luminance" maskUnits="userSpaceOnUse" x="389" y="192" width="122" height="226">
<path fill-rule="evenodd" clip-rule="evenodd" d="M434.741 220.002C434.741 220.002 466.402 248.978 470.48 272.351V272.351C474.56 295.722 467.782 307.823 389.253 384.714V384.714L422.03 417.491C422.03 417.491 501.868 347.131 510.23 295.492V295.492C517.632 249.781 455.812 192.17 455.812 192.17V192.17L431.291 207.473L434.741 220.002Z" fill="white"/>
</mask>
<g mask="url(#mask41_414_69)">
<path fill-rule="evenodd" clip-rule="evenodd" d="M448.435 242.158L462.873 257.834L496.764 237.666L478.135 215.53L448.435 242.158Z" fill="#C1C5D0"/>
</g>
<mask id="mask42_414_69" style="mask-type:luminance" maskUnits="userSpaceOnUse" x="389" y="192" width="122" height="226">
<path fill-rule="evenodd" clip-rule="evenodd" d="M434.741 220.002C434.741 220.002 466.402 248.978 470.48 272.351V272.351C474.56 295.722 467.782 307.823 389.253 384.714V384.714L422.03 417.491C422.03 417.491 501.868 347.131 510.23 295.492V295.492C517.632 249.781 455.812 192.17 455.812 192.17V192.17L431.291 207.473L434.741 220.002Z" fill="white"/>
</mask>
<g mask="url(#mask42_414_69)">
<path fill-rule="evenodd" clip-rule="evenodd" d="M474.142 211.535L445.874 239.803L430.408 224.336L442.685 212.059L439.304 208.679L455.811 192.172L474.142 211.535Z" fill="#FF8900"/>
</g>
<mask id="mask43_414_69" style="mask-type:luminance" maskUnits="userSpaceOnUse" x="389" y="192" width="122" height="226">
<path fill-rule="evenodd" clip-rule="evenodd" d="M434.741 220.002C434.741 220.002 466.402 248.978 470.48 272.351V272.351C474.56 295.722 467.782 307.823 389.253 384.714V384.714L422.03 417.491C422.03 417.491 501.868 347.131 510.23 295.492V295.492C517.632 249.781 455.812 192.17 455.812 192.17V192.17L431.291 207.473L434.741 220.002Z" fill="white"/>
</mask>
<g mask="url(#mask43_414_69)">
<path fill-rule="evenodd" clip-rule="evenodd" d="M400.673 396.135L422.029 417.491L430.385 409.135L416.251 395.001L411.145 400.107L403.923 392.885L400.673 396.135Z" fill="#FF3D71"/>
</g>
<mask id="mask44_414_69" style="mask-type:luminance" maskUnits="userSpaceOnUse" x="429" y="147" width="138" height="318">
<path fill-rule="evenodd" clip-rule="evenodd" d="M476.134 171.847C476.134 171.847 542.784 239.735 526.21 296.513V296.513C511.174 348.022 447.841 403.121 447.841 403.121V403.121L429.459 430.958L468.736 464.199L468.758 464.177C470.164 462.611 544.09 380.044 562.531 308.795V308.795C568.341 286.337 581.139 229.807 500.895 147.086V147.086L476.134 171.847Z" fill="white"/>
</mask>
<g mask="url(#mask44_414_69)">
<path fill-rule="evenodd" clip-rule="evenodd" d="M507.395 140.587L470.563 177.418L495.045 201.899L531.755 169.695L507.395 140.587Z" fill="#C1C5D0"/>
</g>
<mask id="mask45_414_69" style="mask-type:luminance" maskUnits="userSpaceOnUse" x="429" y="147" width="138" height="318">
<path fill-rule="evenodd" clip-rule="evenodd" d="M476.134 171.847C476.134 171.847 542.784 239.735 526.21 296.513V296.513C511.174 348.022 447.841 403.121 447.841 403.121V403.121L429.459 430.958L468.736 464.199L468.758 464.177C470.164 462.611 544.09 380.044 562.531 308.795V308.795C568.341 286.337 581.139 229.807 500.895 147.086V147.086L476.134 171.847Z" fill="white"/>
</mask>
<g mask="url(#mask45_414_69)">
<path fill-rule="evenodd" clip-rule="evenodd" d="M533.177 174.417L497.297 204.152L517.124 230.621L554.367 206.336L533.177 174.417Z" fill="#FF8900"/>
</g>
<mask id="mask46_414_69" style="mask-type:luminance" maskUnits="userSpaceOnUse" x="429" y="147" width="138" height="318">
<path fill-rule="evenodd" clip-rule="evenodd" d="M476.134 171.847C476.134 171.847 542.784 239.735 526.21 296.513V296.513C511.174 348.022 447.841 403.121 447.841 403.121V403.121L429.459 430.958L468.736 464.199L468.758 464.177C470.164 462.611 544.09 380.044 562.531 308.795V308.795C568.341 286.337 581.139 229.807 500.895 147.086V147.086L476.134 171.847Z" fill="white"/>
</mask>
<g mask="url(#mask46_414_69)">
<path fill-rule="evenodd" clip-rule="evenodd" d="M517.746 234.659L525.521 256.955L564.424 246.52L556.688 210.928L517.746 234.659Z" fill="#FF8900"/>
</g>
<mask id="mask47_414_69" style="mask-type:luminance" maskUnits="userSpaceOnUse" x="429" y="147" width="138" height="318">
<path fill-rule="evenodd" clip-rule="evenodd" d="M476.134 171.847C476.134 171.847 542.784 239.735 526.21 296.513V296.513C511.174 348.022 447.841 403.121 447.841 403.121V403.121L429.459 430.958L468.736 464.199L468.758 464.177C470.164 462.611 544.09 380.044 562.531 308.795V308.795C568.341 286.337 581.139 229.807 500.895 147.086V147.086L476.134 171.847Z" fill="white"/>
</mask>
<g mask="url(#mask47_414_69)">
<path fill-rule="evenodd" clip-rule="evenodd" d="M526.614 260.279L526.261 282.632L568.342 286.336L566.041 250.979L526.614 260.279Z" fill="#FF8900"/>
</g>
<mask id="mask48_414_69" style="mask-type:luminance" maskUnits="userSpaceOnUse" x="429" y="147" width="138" height="318">
<path fill-rule="evenodd" clip-rule="evenodd" d="M476.134 171.847C476.134 171.847 542.784 239.735 526.21 296.513V296.513C511.174 348.022 447.841 403.121 447.841 403.121V403.121L429.459 430.958L468.736 464.199L468.758 464.177C470.164 462.611 544.09 380.044 562.531 308.795V308.795C568.341 286.337 581.139 229.807 500.895 147.086V147.086L476.134 171.847Z" fill="white"/>
</mask>
<g mask="url(#mask48_414_69)">
<path fill-rule="evenodd" clip-rule="evenodd" d="M527.219 289.242L520.633 311.051L559.541 325.918L568.96 293.146L527.219 289.242Z" fill="#C1C5D0"/>
</g>
<mask id="mask49_414_69" style="mask-type:luminance" maskUnits="userSpaceOnUse" x="429" y="147" width="138" height="318">
<path fill-rule="evenodd" clip-rule="evenodd" d="M476.134 171.847C476.134 171.847 542.784 239.735 526.21 296.513V296.513C511.174 348.022 447.841 403.121 447.841 403.121V403.121L429.459 430.958L468.736 464.199L468.758 464.177C470.164 462.611 544.09 380.044 562.531 308.795V308.795C568.341 286.337 581.139 229.807 500.895 147.086V147.086L476.134 171.847Z" fill="white"/>
</mask>
<g mask="url(#mask49_414_69)">
<path fill-rule="evenodd" clip-rule="evenodd" d="M519.616 315.603L506.894 336.773L541.33 366.101L557.796 331.656L519.616 315.603Z" fill="#FF8900"/>
</g>
<mask id="mask50_414_69" style="mask-type:luminance" maskUnits="userSpaceOnUse" x="429" y="147" width="138" height="318">
<path fill-rule="evenodd" clip-rule="evenodd" d="M476.134 171.847C476.134 171.847 542.784 239.735 526.21 296.513V296.513C511.174 348.022 447.841 403.121 447.841 403.121V403.121L429.459 430.958L468.736 464.199L468.758 464.177C470.164 462.611 544.09 380.044 562.531 308.795V308.795C568.341 286.337 581.139 229.807 500.895 147.086V147.086L476.134 171.847Z" fill="white"/>
</mask>
<g mask="url(#mask50_414_69)">
<path fill-rule="evenodd" clip-rule="evenodd" d="M504.724 340.327L482.279 364.616L521.925 402.406L539.152 371.041L504.724 340.327Z" fill="#FF8900"/>
</g>
<mask id="mask51_414_69" style="mask-type:luminance" maskUnits="userSpaceOnUse" x="429" y="147" width="138" height="318">
<path fill-rule="evenodd" clip-rule="evenodd" d="M476.134 171.847C476.134 171.847 542.784 239.735 526.21 296.513V296.513C511.174 348.022 447.841 403.121 447.841 403.121V403.121L429.459 430.958L468.736 464.199L468.758 464.177C470.164 462.611 544.09 380.044 562.531 308.795V308.795C568.341 286.337 581.139 229.807 500.895 147.086V147.086L476.134 171.847Z" fill="white"/>
</mask>
<g mask="url(#mask51_414_69)">
<path fill-rule="evenodd" clip-rule="evenodd" d="M479.902 367.813L455.268 395.692L496.256 436.68L518.21 406.121L479.902 367.813Z" fill="#FF3D71"/>
</g>
<mask id="mask52_414_69" style="mask-type:luminance" maskUnits="userSpaceOnUse" x="429" y="147" width="138" height="318">
<path fill-rule="evenodd" clip-rule="evenodd" d="M476.134 171.847C476.134 171.847 542.784 239.735 526.21 296.513V296.513C511.174 348.022 447.841 403.121 447.841 403.121V403.121L429.459 430.958L468.736 464.199L468.758 464.177C470.164 462.611 544.09 380.044 562.531 308.795V308.795C568.341 286.337 581.139 229.807 500.895 147.086V147.086L476.134 171.847Z" fill="white"/>
</mask>
<g mask="url(#mask52_414_69)">
<path fill-rule="evenodd" clip-rule="evenodd" d="M452.38 398.58L447.841 403.119L459.328 414.606L439.236 434.698L450.504 445.966L461.929 434.541L480.162 452.774L493.368 439.568L452.38 398.58Z" fill="#FF3D71"/>
</g>
<mask id="mask53_414_69" style="mask-type:luminance" maskUnits="userSpaceOnUse" x="429" y="147" width="138" height="318">
<path fill-rule="evenodd" clip-rule="evenodd" d="M476.134 171.847C476.134 171.847 542.784 239.735 526.21 296.513V296.513C511.174 348.022 447.841 403.121 447.841 403.121V403.121L429.459 430.958L468.736 464.199L468.758 464.177C470.164 462.611 544.09 380.044 562.531 308.795V308.795C568.341 286.337 581.139 229.807 500.895 147.086V147.086L476.134 171.847Z" fill="white"/>
</mask>
<g mask="url(#mask53_414_69)">
<path fill-rule="evenodd" clip-rule="evenodd" d="M468.737 464.199L477.093 455.844L461.933 440.684L453.577 449.04L468.737 464.199Z" fill="#FF3D71"/>
</g>
<path fill-rule="evenodd" clip-rule="evenodd" d="M462.396 176.368L455.123 183.641L441.812 170.33C430.823 159.341 418.443 149.815 404.911 142.148C396.071 137.138 386.544 132.368 380.084 130.886L382.935 119.293C382.935 119.293 412.53 122.169 462.396 176.368" fill="#FF8900"/>
<mask id="mask54_414_69" style="mask-type:luminance" maskUnits="userSpaceOnUse" x="225" y="132" width="227" height="123">
<path fill-rule="evenodd" clip-rule="evenodd" d="M225.881 221.343L258.657 254.118C335.549 175.591 347.652 168.814 371.023 172.894V172.894C394.396 176.972 423.372 208.633 423.372 208.633V208.633L435.9 212.081L451.203 187.561C451.203 187.561 393.592 125.741 347.883 133.144V133.144C311.972 138.958 267.007 179.34 242.945 203.399V203.399C232.405 213.939 225.881 221.343 225.881 221.343V221.343Z" fill="white"/>
</mask>
<g mask="url(#mask54_414_69)">
<path fill-rule="evenodd" clip-rule="evenodd" d="M290.091 224.735L264.403 250.423L248.732 234.752L255.232 228.252L237.411 209.814L258.456 188.768L290.091 224.735Z" fill="#FF3D71"/>
</g>
<mask id="mask55_414_69" style="mask-type:luminance" maskUnits="userSpaceOnUse" x="225" y="132" width="227" height="123">
<path fill-rule="evenodd" clip-rule="evenodd" d="M225.881 221.343L258.657 254.118C335.549 175.591 347.652 168.814 371.023 172.894V172.894C394.396 176.972 423.372 208.633 423.372 208.633V208.633L435.9 212.081L451.203 187.561C451.203 187.561 393.592 125.741 347.883 133.144V133.144C311.972 138.958 267.007 179.34 242.945 203.399V203.399C232.405 213.939 225.881 221.343 225.881 221.343V221.343Z" fill="white"/>
</mask>
<g mask="url(#mask55_414_69)">
<path fill-rule="evenodd" clip-rule="evenodd" d="M311.55 203.277L292.364 221.644L262.269 186.185L282.221 166.234L311.55 203.277Z" fill="#FF3D71"/>
</g>
<mask id="mask56_414_69" style="mask-type:luminance" maskUnits="userSpaceOnUse" x="225" y="132" width="227" height="123">
<path fill-rule="evenodd" clip-rule="evenodd" d="M225.881 221.343L258.657 254.118C335.549 175.591 347.652 168.814 371.023 172.894V172.894C394.396 176.972 423.372 208.633 423.372 208.633V208.633L435.9 212.081L451.203 187.561C451.203 187.561 393.592 125.741 347.883 133.144V133.144C311.972 138.958 267.007 179.34 242.945 203.399V203.399C232.405 213.939 225.881 221.343 225.881 221.343V221.343Z" fill="white"/>
</mask>
<g mask="url(#mask56_414_69)">
<path fill-rule="evenodd" clip-rule="evenodd" d="M337.731 183.241C336.803 183.86 313.458 201.368 313.458 201.368L286.144 164.153L315.672 142.922L337.731 183.241Z" fill="#FF8900"/>
</g>
<mask id="mask57_414_69" style="mask-type:luminance" maskUnits="userSpaceOnUse" x="225" y="132" width="227" height="123">
<path fill-rule="evenodd" clip-rule="evenodd" d="M225.881 221.343L258.657 254.118C335.549 175.591 347.652 168.814 371.023 172.894V172.894C394.396 176.972 423.372 208.633 423.372 208.633V208.633L435.9 212.081L451.203 187.561C451.203 187.561 393.592 125.741 347.883 133.144V133.144C311.972 138.958 267.007 179.34 242.945 203.399V203.399C232.405 213.939 225.881 221.343 225.881 221.343V221.343Z" fill="white"/>
</mask>
<g mask="url(#mask57_414_69)">
<path fill-rule="evenodd" clip-rule="evenodd" d="M352.721 175.013L340.054 180.919L320.155 140.59L358.411 126.331L352.721 175.013Z" fill="#C1C5D0"/>
</g>
<mask id="mask58_414_69" style="mask-type:luminance" maskUnits="userSpaceOnUse" x="225" y="132" width="227" height="123">
<path fill-rule="evenodd" clip-rule="evenodd" d="M225.881 221.343L258.657 254.118C335.549 175.591 347.652 168.814 371.023 172.894V172.894C394.396 176.972 423.372 208.633 423.372 208.633V208.633L435.9 212.081L451.203 187.561C451.203 187.561 393.592 125.741 347.883 133.144V133.144C311.972 138.958 267.007 179.34 242.945 203.399V203.399C232.405 213.939 225.881 221.343 225.881 221.343V221.343Z" fill="white"/>
</mask>
<g mask="url(#mask58_414_69)">
<path fill-rule="evenodd" clip-rule="evenodd" d="M382.467 178.146L363.823 174.36L369.293 154.14L359.331 151.605L363.836 127.636L374.165 128.371L373.529 133.925L401.711 143.538L382.467 178.146Z" fill="#FF8900"/>
</g>
<mask id="mask59_414_69" style="mask-type:luminance" maskUnits="userSpaceOnUse" x="225" y="132" width="227" height="123">
<path fill-rule="evenodd" clip-rule="evenodd" d="M225.881 221.343L258.657 254.118C335.549 175.591 347.652 168.814 371.023 172.894V172.894C394.396 176.972 423.372 208.633 423.372 208.633V208.633L435.9 212.081L451.203 187.561C451.203 187.561 393.592 125.741 347.883 133.144V133.144C311.972 138.958 267.007 179.34 242.945 203.399V203.399C232.405 213.939 225.881 221.343 225.881 221.343V221.343Z" fill="white"/>
</mask>
<g mask="url(#mask59_414_69)">
<path fill-rule="evenodd" clip-rule="evenodd" d="M401.216 194.938L385.54 180.499L405.708 146.609L427.843 165.237L401.216 194.938Z" fill="#FF8900"/>
</g>
<mask id="mask60_414_69" style="mask-type:luminance" maskUnits="userSpaceOnUse" x="225" y="132" width="227" height="123">
<path fill-rule="evenodd" clip-rule="evenodd" d="M225.881 221.343L258.657 254.118C335.549 175.591 347.652 168.814 371.023 172.894V172.894C394.396 176.972 423.372 208.633 423.372 208.633V208.633L435.9 212.081L451.203 187.561C451.203 187.561 393.592 125.741 347.883 133.144V133.144C311.972 138.958 267.007 179.34 242.945 203.399V203.399C232.405 213.939 225.881 221.343 225.881 221.343V221.343Z" fill="white"/>
</mask>
<g mask="url(#mask60_414_69)">
<path fill-rule="evenodd" clip-rule="evenodd" d="M431.839 169.232L403.571 197.5L419.038 212.966L431.315 200.689L434.694 204.068L451.201 187.562L431.839 169.232Z" fill="#FF8900"/>
</g>
<mask id="mask61_414_69" style="mask-type:luminance" maskUnits="userSpaceOnUse" x="225" y="132" width="227" height="123">
<path fill-rule="evenodd" clip-rule="evenodd" d="M225.881 221.343L258.657 254.118C335.549 175.591 347.652 168.814 371.023 172.894V172.894C394.396 176.972 423.372 208.633 423.372 208.633V208.633L435.9 212.081L451.203 187.561C451.203 187.561 393.592 125.741 347.883 133.144V133.144C311.972 138.958 267.007 179.34 242.945 203.399V203.399C232.405 213.939 225.881 221.343 225.881 221.343V221.343Z" fill="white"/>
</mask>
<g mask="url(#mask61_414_69)">
<path fill-rule="evenodd" clip-rule="evenodd" d="M247.238 242.699L225.882 221.343L234.238 212.987L248.373 227.122L243.267 232.228L250.488 239.449L247.238 242.699Z" fill="#FF3D71"/>
</g>
<mask id="mask62_414_69" style="mask-type:luminance" maskUnits="userSpaceOnUse" x="179" y="76" width="318" height="138">
<path fill-rule="evenodd" clip-rule="evenodd" d="M179.173 174.636L212.416 213.915L240.253 195.534C240.253 195.534 295.35 132.198 346.861 117.164V117.164C403.636 100.587 471.525 167.238 471.525 167.238V167.238L496.286 142.477C413.568 62.2358 357.034 75.0294 334.578 80.8424V80.8424C262.643 99.4581 179.173 174.636 179.173 174.636Z" fill="white"/>
</mask>
<g mask="url(#mask62_414_69)">
<path fill-rule="evenodd" clip-rule="evenodd" d="M502.785 135.978L465.954 172.809L441.474 148.329L473.678 111.618L502.785 135.978Z" fill="#C1C5D0"/>
</g>
<mask id="mask63_414_69" style="mask-type:luminance" maskUnits="userSpaceOnUse" x="179" y="76" width="318" height="138">
<path fill-rule="evenodd" clip-rule="evenodd" d="M179.173 174.636L212.416 213.915L240.253 195.534C240.253 195.534 295.35 132.198 346.861 117.164V117.164C403.636 100.587 471.525 167.238 471.525 167.238V167.238L496.286 142.477C413.568 62.2358 357.034 75.0294 334.578 80.8424V80.8424C262.643 99.4581 179.173 174.636 179.173 174.636Z" fill="white"/>
</mask>
<g mask="url(#mask63_414_69)">
<path fill-rule="evenodd" clip-rule="evenodd" d="M468.956 110.195L439.222 146.076L412.751 126.248L437.037 89.0055L468.956 110.195Z" fill="#FF8900"/>
</g>
<mask id="mask64_414_69" style="mask-type:luminance" maskUnits="userSpaceOnUse" x="179" y="76" width="318" height="138">
<path fill-rule="evenodd" clip-rule="evenodd" d="M179.173 174.636L212.416 213.915L240.253 195.534C240.253 195.534 295.35 132.198 346.861 117.164V117.164C403.636 100.587 471.525 167.238 471.525 167.238V167.238L496.286 142.477C413.568 62.2358 357.034 75.0294 334.578 80.8424V80.8424C262.643 99.4581 179.173 174.636 179.173 174.636Z" fill="white"/>
</mask>
<g mask="url(#mask64_414_69)">
<path fill-rule="evenodd" clip-rule="evenodd" d="M408.712 125.626L386.416 117.851L396.853 78.9489L432.445 86.6846L408.712 125.626Z" fill="#FF8900"/>
</g>
<mask id="mask65_414_69" style="mask-type:luminance" maskUnits="userSpaceOnUse" x="179" y="76" width="318" height="138">
<path fill-rule="evenodd" clip-rule="evenodd" d="M179.173 174.636L212.416 213.915L240.253 195.534C240.253 195.534 295.35 132.198 346.861 117.164V117.164C403.636 100.587 471.525 167.238 471.525 167.238V167.238L496.286 142.477C413.568 62.2358 357.034 75.0294 334.578 80.8424V80.8424C262.643 99.4581 179.173 174.636 179.173 174.636Z" fill="white"/>
</mask>
<g mask="url(#mask65_414_69)">
<path fill-rule="evenodd" clip-rule="evenodd" d="M383.092 116.758L360.739 117.111L357.036 75.0295L392.392 77.3313L383.092 116.758Z" fill="#FF8900"/>
</g>
<mask id="mask66_414_69" style="mask-type:luminance" maskUnits="userSpaceOnUse" x="179" y="76" width="318" height="138">
<path fill-rule="evenodd" clip-rule="evenodd" d="M179.173 174.636L212.416 213.915L240.253 195.534C240.253 195.534 295.35 132.198 346.861 117.164V117.164C403.636 100.587 471.525 167.238 471.525 167.238V167.238L496.286 142.477C413.568 62.2358 357.034 75.0294 334.578 80.8424V80.8424C262.643 99.4581 179.173 174.636 179.173 174.636Z" fill="white"/>
</mask>
<g mask="url(#mask66_414_69)">
<path fill-rule="evenodd" clip-rule="evenodd" d="M354.13 116.154L332.321 122.739L317.454 83.831L350.227 74.4134L354.13 116.154Z" fill="#C1C5D0"/>
</g>
<mask id="mask67_414_69" style="mask-type:luminance" maskUnits="userSpaceOnUse" x="179" y="76" width="318" height="138">
<path fill-rule="evenodd" clip-rule="evenodd" d="M179.173 174.636L212.416 213.915L240.253 195.534C240.253 195.534 295.35 132.198 346.861 117.164V117.164C403.636 100.587 471.525 167.238 471.525 167.238V167.238L496.286 142.477C413.568 62.2358 357.034 75.0294 334.578 80.8424V80.8424C262.643 99.4581 179.173 174.636 179.173 174.636Z" fill="white"/>
</mask>
<g mask="url(#mask67_414_69)">
<path fill-rule="evenodd" clip-rule="evenodd" d="M327.77 123.757L306.598 136.478L277.271 102.042L311.716 85.5754L327.77 123.757Z" fill="#FF8900"/>
</g>
<mask id="mask68_414_69" style="mask-type:luminance" maskUnits="userSpaceOnUse" x="179" y="76" width="318" height="138">
<path fill-rule="evenodd" clip-rule="evenodd" d="M179.173 174.636L212.416 213.915L240.253 195.534C240.253 195.534 295.35 132.198 346.861 117.164V117.164C403.636 100.587 471.525 167.238 471.525 167.238V167.238L496.286 142.477C413.568 62.2358 357.034 75.0294 334.578 80.8424V80.8424C262.643 99.4581 179.173 174.636 179.173 174.636Z" fill="white"/>
</mask>
<g mask="url(#mask68_414_69)">
<path fill-rule="evenodd" clip-rule="evenodd" d="M303.045 138.648L278.756 161.093L240.967 121.449L272.331 104.22L303.045 138.648Z" fill="#C1C5D0"/>
</g>
<mask id="mask69_414_69" style="mask-type:luminance" maskUnits="userSpaceOnUse" x="179" y="76" width="318" height="138">
<path fill-rule="evenodd" clip-rule="evenodd" d="M179.173 174.636L212.416 213.915L240.253 195.534C240.253 195.534 295.35 132.198 346.861 117.164V117.164C403.636 100.587 471.525 167.238 471.525 167.238V167.238L496.286 142.477C413.568 62.2358 357.034 75.0294 334.578 80.8424V80.8424C262.643 99.4581 179.173 174.636 179.173 174.636Z" fill="white"/>
</mask>
<g mask="url(#mask69_414_69)">
<path fill-rule="evenodd" clip-rule="evenodd" d="M275.559 163.47L247.681 188.105L206.693 147.117L237.252 125.163L275.559 163.47Z" fill="#C1C5D0"/>
</g>
<mask id="mask70_414_69" style="mask-type:luminance" maskUnits="userSpaceOnUse" x="179" y="76" width="318" height="138">
<path fill-rule="evenodd" clip-rule="evenodd" d="M179.173 174.636L212.416 213.915L240.253 195.534C240.253 195.534 295.35 132.198 346.861 117.164V117.164C403.636 100.587 471.525 167.238 471.525 167.238V167.238L496.286 142.477C413.568 62.2358 357.034 75.0294 334.578 80.8424V80.8424C262.643 99.4581 179.173 174.636 179.173 174.636Z" fill="white"/>
</mask>
<g mask="url(#mask70_414_69)">
<path fill-rule="evenodd" clip-rule="evenodd" d="M244.793 190.993L240.254 195.531L228.766 184.043L208.673 204.136L197.405 192.867L208.83 181.442L190.599 163.211L203.805 150.005L244.793 190.993Z" fill="#C1C5D0"/>
</g>
<mask id="mask71_414_69" style="mask-type:luminance" maskUnits="userSpaceOnUse" x="179" y="76" width="318" height="138">
<path fill-rule="evenodd" clip-rule="evenodd" d="M179.173 174.636L212.416 213.915L240.253 195.534C240.253 195.534 295.35 132.198 346.861 117.164V117.164C403.636 100.587 471.525 167.238 471.525 167.238V167.238L496.286 142.477C413.568 62.2358 357.034 75.0294 334.578 80.8424V80.8424C262.643 99.4581 179.173 174.636 179.173 174.636Z" fill="white"/>
</mask>
<g mask="url(#mask71_414_69)">
<path fill-rule="evenodd" clip-rule="evenodd" d="M194.333 189.796L202.689 181.44L187.531 166.281L179.175 174.637L194.333 189.796Z" fill="#FF3D71"/>
</g>
</svg>
