<svg width="36" height="36" viewBox="0 0 36 36" fill="none" xmlns="http://www.w3.org/2000/svg">
<path d="M31.2612 6.91505C30.495 6.14856 29.5854 5.54052 28.5842 5.12568C27.583 4.71084 26.5099 4.49731 25.4262 4.49731C24.3424 4.49731 23.2693 4.71084 22.2681 5.12568C21.2669 5.54052 20.3573 6.14856 19.5912 6.91505L18.0012 8.50505L16.4112 6.91505C14.8636 5.36751 12.7647 4.49812 10.5762 4.49812C8.38761 4.49812 6.28869 5.36751 4.74115 6.91505C3.19362 8.46259 2.32422 10.5615 2.32422 12.7501C2.32422 14.9386 3.19362 17.0375 4.74115 18.5851L6.33115 20.1751L18.0012 31.8451L29.6712 20.1751L31.2612 18.5851C32.0276 17.8189 32.6357 16.9093 33.0505 15.9081C33.4654 14.9069 33.6789 13.8338 33.6789 12.7501C33.6789 11.6663 33.4654 10.5932 33.0505 9.59202C32.6357 8.59083 32.0276 7.68119 31.2612 6.91505V6.91505Z" stroke="#3366FF" stroke-width="2" stroke-linecap="round" stroke-linejoin="round"/>
</svg>
