<svg width="24" height="24" viewBox="0 0 24 24" fill="none" xmlns="http://www.w3.org/2000/svg">
<path fill-rule="evenodd" clip-rule="evenodd" d="M9.5535 24C8.96995 24 8.23127 23.6774 7.80259 23.2626L1.03693 16.421C0.159357 15.5741 -0.448914 14.7439 0.428656 13.8947C1.30623 13.0477 1.98432 13.6793 2.86189 14.5263L8.33672 20.2105V2.48755C8.33672 1.28874 8.31458 0 9.5535 0C10.7924 0 10.77 1.28874 10.77 2.48755V21.6092C10.77 22.4866 10.999 23.6634 10.1618 24C10.1618 24 9.84303 24 9.5535 24Z" fill="#3366FF"/>
<path fill-rule="evenodd" clip-rule="evenodd" d="M14.4484 1.52588e-05C15.032 1.52588e-05 15.7707 0.322586 16.1994 0.737392L22.965 7.57896C23.8426 8.42594 24.4509 9.25611 23.5733 10.1053C22.6957 10.9523 22.0176 10.3207 21.1401 9.47369L15.6652 3.78949V21.5125C15.6652 22.7113 15.6874 24 14.4484 24C13.2095 24 13.2319 22.7113 13.2319 21.5125V2.39082C13.2319 1.51343 13.003 0.336637 13.8401 1.52588e-05C13.8401 1.52588e-05 14.1589 1.52588e-05 14.4484 1.52588e-05Z" fill="#3366FF"/>
</svg>
